<svg width="698" height="1114" viewBox="0 0 698 1114" fill="none" xmlns="http://www.w3.org/2000/svg">
<g clip-path="url(#clip0_1_19)">
<rect width="698" height="1114" fill="#F4F5F6"/>
<path d="M722.729 80.8831C760.079 43.5333 760.079 -17.0226 722.729 -54.3723C685.379 -91.7221 624.823 -91.7221 587.473 -54.3723C550.124 -17.0226 550.124 43.5333 587.473 80.8831C624.823 118.233 685.379 118.233 722.729 80.8831Z" fill="#F2C94C"/>
<path d="M507.22 144.732L514.57 148.972V140.492L507.22 144.732Z" fill="#F2C94C"/>
<path d="M507.22 136.242L514.57 140.492V132.002L507.22 136.242Z" fill="#F2C94C"/>
<path d="M507.22 127.762L514.57 132.002V123.522L507.22 127.762Z" fill="#F2C94C"/>
<path d="M507.22 119.282L514.57 123.522V115.042L507.22 119.282Z" fill="#F2C94C"/>
<path d="M514.569 140.492L521.909 144.732V136.242L514.569 140.492Z" fill="#F2C94C"/>
<path d="M514.569 132.002L521.909 136.242V127.762L514.569 132.002Z" fill="#F2C94C"/>
<path d="M514.569 123.522L521.909 127.762V119.282L514.569 123.522Z" fill="#F2C94C"/>
<path d="M521.909 144.732L529.259 148.972V140.492L521.909 144.732Z" fill="#F2C94C"/>
<path d="M521.909 136.242L529.259 140.492V132.002L521.909 136.242Z" fill="#F2C94C"/>
<path d="M521.909 127.762L529.259 132.002V123.522L521.909 127.762Z" fill="#F2C94C"/>
<path d="M521.909 119.282L529.259 123.522V115.042L521.909 119.282Z" fill="#F2C94C"/>
<path d="M529.26 140.492L536.61 144.732V136.242L529.26 140.492Z" fill="#F2C94C"/>
<path d="M529.26 132.002L536.61 136.242V127.762L529.26 132.002Z" fill="#F2C94C"/>
<path d="M529.26 123.522L536.61 127.762V119.282L529.26 123.522Z" fill="#F2C94C"/>
<path opacity="0.51" d="M407 65.4521C407 65.7174 406.895 65.9717 406.707 66.1593C406.52 66.3468 406.265 66.4521 406 66.4521C405.735 66.4521 405.48 66.3468 405.293 66.1593C405.105 65.9717 405 65.7174 405 65.4521C405 65.1869 405.105 64.9326 405.293 64.745C405.48 64.5575 405.735 64.4521 406 64.4521C406.265 64.4521 406.52 64.5575 406.707 64.745C406.895 64.9326 407 65.1869 407 65.4521Z" fill="black"/>
<path opacity="0.51" d="M407 88.292C407 88.4898 406.941 88.6831 406.831 88.8476C406.722 89.012 406.565 89.1402 406.383 89.2159C406.2 89.2916 405.999 89.3114 405.805 89.2728C405.611 89.2342 405.433 89.139 405.293 88.9991C405.153 88.8593 405.058 88.6811 405.019 88.4871C404.981 88.2931 405 88.0921 405.076 87.9093C405.152 87.7266 405.28 87.5704 405.444 87.4606C405.609 87.3507 405.802 87.292 406 87.292C406.265 87.292 406.52 87.3974 406.707 87.5849C406.895 87.7725 407 88.0268 407 88.292Z" fill="black"/>
<path opacity="0.51" d="M407 111.132C407 111.33 406.941 111.523 406.831 111.687C406.722 111.852 406.565 111.98 406.383 112.056C406.2 112.131 405.999 112.151 405.805 112.113C405.611 112.074 405.433 111.979 405.293 111.839C405.153 111.699 405.058 111.521 405.019 111.327C404.981 111.133 405 110.932 405.076 110.749C405.152 110.566 405.28 110.41 405.444 110.3C405.609 110.191 405.802 110.132 406 110.132C406.265 110.132 406.52 110.237 406.707 110.425C406.895 110.612 407 110.867 407 111.132Z" fill="black"/>
<path d="M612.389 102.312H559.459V49.3921H612.389V102.312ZM567.609 94.1721H604.239V57.5321H567.609V94.1721Z" stroke="black" stroke-width="0.25" stroke-miterlimit="10"/>
<path d="M613.789 185.672C621.309 182.432 624.469 189.762 631.979 186.522C639.489 183.282 636.329 175.952 643.839 172.702C651.349 169.452 654.509 176.792 662.029 173.552C669.549 170.312 666.369 162.982 673.889 159.732C681.409 156.482 684.559 163.822 692.079 160.582" stroke="black" stroke-width="0.17" stroke-miterlimit="10"/>
<path d="M467.25 89.2421C474.76 86.0021 477.92 93.3221 485.43 90.0821C492.94 86.8421 489.78 79.5121 497.29 76.2721C504.8 73.0321 507.96 80.3521 515.48 77.1121C523 73.8721 519.83 66.5421 527.34 63.3021C534.85 60.0621 538.01 67.3821 545.53 64.1421" stroke="black" stroke-width="0.17" stroke-miterlimit="10"/>
<g clip-path="url(#clip1_1_19)">
<path d="M526.74 347.35C529.116 346.3 531.132 344.576 532.538 342.391C533.944 340.207 534.678 337.658 534.65 335.06C534.65 327.72 529.13 321.75 522.25 321.71C515.37 321.67 509.77 327.61 509.74 334.94C509.689 337.562 510.417 340.139 511.83 342.348C513.243 344.557 515.279 346.297 517.68 347.35C498.51 350.24 499.38 371.07 499.38 371.07L544.71 371.28C544.71 371.28 545.74 350.22 526.74 347.35Z" fill="#F5F5F5"/>
<path d="M258.89 269.48L229.26 259L199.92 269.34C196.18 271.08 192.92 272.12 192.92 275.56V292.66C192.871 304.694 196.223 316.498 202.59 326.71C208.984 337.108 218.406 345.301 229.59 350.19C241.59 346.35 250.53 336.12 256.01 327.38C262.358 317.178 265.705 305.395 265.67 293.38V278C265.63 273.05 263 270.66 258.89 269.48Z" fill="#F5F5F5"/>
<path d="M239.1 297.09C239.096 295.566 238.667 294.073 237.862 292.778C237.056 291.484 235.906 290.44 234.54 289.764C233.174 289.087 231.646 288.805 230.128 288.948C228.611 289.092 227.163 289.655 225.948 290.576C224.733 291.497 223.799 292.738 223.25 294.16C222.701 295.582 222.56 297.129 222.841 298.627C223.123 300.125 223.817 301.515 224.845 302.641C225.872 303.767 227.194 304.584 228.66 305V317.21H233.14V305C234.861 304.513 236.375 303.476 237.451 302.048C238.527 300.62 239.107 298.878 239.1 297.09Z" fill="#EBEBEB"/>
<path d="M510.81 428.05L515.86 430.79L513.59 434.59L508.49 431.59L508.58 437.2H504.23V431.55L499.13 434.61L496.91 430.81L501.96 428.07L497 425.27L499.22 421.47L504.32 424.53V418.87H508.67L508.58 424.53L513.68 421.47L515.95 425.27L510.81 428.05Z" fill="#E0E0E0"/>
<path d="M531.85 428.05L536.85 430.79L534.58 434.59L529.48 431.59L529.58 437.2H525.22V431.55L520.13 434.61L517.9 430.81L522.95 428.07L518 425.27L520.23 421.47L525.32 424.53V418.87H529.68L529.58 424.53L534.68 421.47L536.95 425.27L531.85 428.05Z" fill="#E0E0E0"/>
<path d="M552.89 428.05L557.95 430.79L555.68 434.59L550.58 431.59L550.67 437.2H546.31L546.36 431.55L541.26 434.61L539.03 430.81L544.09 428.07L539 425.27L541.23 421.47L546.33 424.53L546.28 418.87H550.64L550.55 424.53L555.65 421.47L557.92 425.27L552.89 428.05Z" fill="#E0E0E0"/>
<path d="M338.8 667.41V698.47H384.23H434.33V667.41H338.8Z" fill="#F5F5F5"/>
<path d="M334.8 658.73V667.41H437.67V658.73H384.23H334.8Z" fill="#EBEBEB"/>
<path d="M386.23 698.47H434.33V667.41H437.67V658.73H384.23V666.61L386.23 698.47Z" fill="#EBEBEB"/>
<path d="M371.53 672.42H352.16V677.1H371.53V672.42Z" fill="#E0E0E0"/>
<path d="M374.55 682.94H349.67V692.81H374.55V682.94Z" fill="white"/>
<path d="M353.5 627.71V658.77H398.93H449.03V627.71H353.5Z" fill="#F5F5F5"/>
<path d="M349.49 619.02V627.71H452.37V619.02H398.93H349.49Z" fill="#EBEBEB"/>
<path d="M400.93 658.77H449.03V627.71H452.37V619.02H398.93V626.9L400.93 658.77Z" fill="#EBEBEB"/>
<path d="M386.23 632.72H366.86V637.4H386.23V632.72Z" fill="#E0E0E0"/>
<path d="M389.25 643.24H364.37V653.11H389.25V643.24Z" fill="white"/>
<path d="M559.14 698.71C559.14 698.86 463.29 698.97 345.08 698.97C226.87 698.97 131 698.86 131 698.71C131 698.56 226.83 698.45 345.08 698.45C463.33 698.45 559.14 698.57 559.14 698.71Z" fill="#263238"/>
<path d="M470.78 277.84H292.14C288.517 277.84 285.58 280.777 285.58 284.4V448.75C285.58 452.373 288.517 455.31 292.14 455.31H470.78C474.403 455.31 477.34 452.373 477.34 448.75V284.4C477.34 280.777 474.403 277.84 470.78 277.84Z" fill="white"/>
<path d="M470.78 455.31H471.25C471.714 455.267 472.172 455.18 472.62 455.05C473.337 454.829 474.013 454.492 474.62 454.05C475.478 453.419 476.165 452.584 476.62 451.62C477.158 450.381 477.372 449.025 477.24 447.68C477.24 446.18 477.24 444.55 477.24 442.78C477.24 439.24 477.24 435.15 477.24 430.55C477.24 412.15 477.19 385.55 477.15 352.63C477.15 336.18 477.15 318.16 477.15 298.82C477.15 293.993 477.15 289.08 477.15 284.08C477.075 282.86 476.648 281.688 475.92 280.707C475.193 279.725 474.195 278.976 473.05 278.55C471.858 278.175 470.605 278.035 469.36 278.14H433.67H292.16C290.638 278.132 289.162 278.667 288 279.65C286.847 280.634 286.096 282.008 285.89 283.51C285.821 284.275 285.797 285.043 285.82 285.81V347.37C285.82 371.04 285.82 393.88 285.82 415.63C285.82 426.503 285.82 437.097 285.82 447.41C285.82 448.05 285.82 448.71 285.82 449.32C285.876 449.937 286.021 450.544 286.25 451.12C286.716 452.266 287.504 453.253 288.52 453.96C289.53 454.659 290.722 455.048 291.95 455.08H310.46H364.27L442.19 455.16H463.37H468.88H470.76H468.88H463.37H442.19L364.27 455.25H310.46H292C290.679 455.217 289.396 454.798 288.31 454.044C287.225 453.291 286.383 452.236 285.89 451.01C285.643 450.392 285.485 449.742 285.42 449.08C285.42 448.41 285.42 447.78 285.42 447.08C285.42 436.78 285.42 426.187 285.42 415.3C285.42 393.55 285.42 370.71 285.42 347.04C285.42 335.207 285.42 323.173 285.42 310.94V285.81C285.392 285.019 285.419 284.227 285.5 283.44C285.721 281.811 286.532 280.32 287.78 279.25C289.025 278.174 290.615 277.581 292.26 277.58H433.77H465.55H469.4C470.699 277.469 472.007 277.616 473.25 278.01C474.465 278.491 475.516 279.311 476.276 280.374C477.037 281.436 477.476 282.695 477.54 284C477.54 289 477.54 293.92 477.54 298.76C477.54 318.1 477.54 336.12 477.54 352.57C477.54 385.46 477.48 412.09 477.46 430.49C477.46 435.09 477.46 439.18 477.46 442.72C477.46 444.49 477.46 446.12 477.46 447.62C477.592 448.988 477.364 450.367 476.8 451.62C476.346 452.592 475.659 453.437 474.8 454.08C474.172 454.529 473.472 454.867 472.73 455.08C472.276 455.207 471.81 455.284 471.34 455.31H470.78Z" fill="#263238"/>
<path d="M300.05 290.14C300.052 290.798 299.859 291.441 299.495 291.988C299.131 292.536 298.612 292.963 298.005 293.215C297.398 293.468 296.73 293.535 296.085 293.407C295.44 293.279 294.847 292.963 294.383 292.498C293.918 292.033 293.601 291.44 293.473 290.795C293.346 290.15 293.412 289.482 293.665 288.875C293.917 288.268 294.344 287.749 294.892 287.385C295.439 287.021 296.083 286.828 296.74 286.83C297.617 286.833 298.458 287.182 299.078 287.802C299.698 288.423 300.048 289.263 300.05 290.14Z" fill="#263238"/>
<path d="M306.42 293.45C308.248 293.45 309.73 291.968 309.73 290.14C309.73 288.312 308.248 286.83 306.42 286.83C304.592 286.83 303.11 288.312 303.11 290.14C303.11 291.968 304.592 293.45 306.42 293.45Z" fill="#263238"/>
<path d="M316.1 293.45C317.928 293.45 319.41 291.968 319.41 290.14C319.41 288.312 317.928 286.83 316.1 286.83C314.272 286.83 312.79 288.312 312.79 290.14C312.79 291.968 314.272 293.45 316.1 293.45Z" fill="#263238"/>
<path d="M477.34 299.55C477.34 299.69 434.41 299.81 381.46 299.81C328.51 299.81 285.58 299.69 285.58 299.55C285.58 299.41 328.5 299.29 381.46 299.29C434.42 299.29 477.34 299.4 477.34 299.55Z" fill="#263238"/>
<path d="M408.55 366.4L408.77 366.09L408.9 365.92C408.951 365.852 408.995 365.778 409.03 365.7C409.148 365.516 409.249 365.322 409.33 365.12C409.33 365 409.43 364.88 409.47 364.75L409.59 364.33C409.633 364.176 409.663 364.019 409.68 363.86C409.718 363.692 409.745 363.521 409.76 363.35C409.826 362.518 409.785 361.682 409.64 360.86C409.214 358.612 408.445 356.444 407.36 354.43C405.957 351.743 404.314 349.19 402.45 346.8C400.21 343.891 397.767 341.145 395.14 338.58C392.133 335.625 388.922 332.884 385.53 330.38C383.744 329.047 381.85 327.78 379.85 326.58C377.823 325.346 375.719 324.243 373.55 323.28C371.32 322.251 368.968 321.512 366.55 321.08C365.315 320.862 364.055 320.828 362.81 320.98C362.186 321.077 361.578 321.255 361 321.51C360.431 321.781 359.919 322.158 359.49 322.62C359.077 323.099 358.758 323.652 358.55 324.25C358.362 324.853 358.258 325.479 358.24 326.11C358.224 327.362 358.396 328.609 358.75 329.81C359.465 332.17 360.473 334.431 361.75 336.54C362.952 338.589 364.288 340.557 365.75 342.43C367.17 344.27 368.66 346 370.17 347.64C373.042 350.725 376.13 353.602 379.41 356.25C382.257 358.569 385.265 360.685 388.41 362.58C390.994 364.156 393.715 365.495 396.54 366.58C398.668 367.433 400.914 367.952 403.2 368.12C404.031 368.171 404.864 368.114 405.68 367.95C405.85 367.918 406.017 367.875 406.18 367.82C406.338 367.787 406.493 367.736 406.64 367.67L407.04 367.51C407.17 367.45 407.28 367.38 407.39 367.32C407.58 367.22 407.761 367.102 407.93 366.97L408.14 366.81L408.3 366.66L408.58 366.4L408.31 366.68L408.15 366.83L407.95 366.99C407.779 367.128 407.595 367.249 407.4 367.35L407.06 367.54L406.65 367.71C406.502 367.773 406.348 367.823 406.19 367.86C406.027 367.915 405.86 367.958 405.69 367.99C404.869 368.162 404.028 368.225 403.19 368.18C400.902 368.02 398.652 367.508 396.52 366.66C393.681 365.578 390.946 364.239 388.35 362.66C385.204 360.765 382.197 358.65 379.35 356.33C376.035 353.687 372.911 350.813 370 347.73C368.48 346.097 367.004 344.357 365.57 342.51C364.11 340.633 362.774 338.662 361.57 336.61C360.292 334.491 359.284 332.22 358.57 329.85C358.207 328.634 358.031 327.369 358.05 326.1C358.072 325.455 358.18 324.816 358.37 324.2C358.574 323.579 358.904 323.008 359.34 322.521C359.775 322.034 360.306 321.642 360.9 321.37C361.492 321.115 362.113 320.937 362.75 320.84C364.008 320.679 365.282 320.71 366.53 320.93C368.966 321.372 371.337 322.114 373.59 323.14C375.766 324.11 377.877 325.219 379.91 326.46C381.91 327.67 383.8 328.95 385.59 330.27C388.984 332.779 392.196 335.526 395.2 338.49C397.828 341.061 400.271 343.814 402.51 346.73C404.373 349.129 406.013 351.693 407.41 354.39C408.493 356.414 409.259 358.593 409.68 360.85C409.819 361.676 409.853 362.516 409.78 363.35C409.764 363.525 409.737 363.698 409.7 363.87C409.683 364.03 409.65 364.187 409.6 364.34L409.48 364.76C409.48 364.89 409.38 365.01 409.33 365.13C409.253 365.334 409.152 365.529 409.03 365.71L408.9 365.93L408.77 366.1L408.55 366.4Z" fill="#F2C94C"/>
<path d="M417.62 344.49V344.11V343.89C417.62 343.82 417.62 343.73 417.57 343.64C417.531 343.426 417.474 343.215 417.4 343.01C417.4 342.89 417.32 342.77 417.27 342.64L417.07 342.25C417.001 342.107 416.921 341.97 416.83 341.84C416.744 341.687 416.647 341.54 416.54 341.4C416.037 340.736 415.452 340.138 414.8 339.62C412.977 338.231 410.954 337.125 408.8 336.34C405.946 335.269 403.001 334.459 400 333.92C396.391 333.243 392.739 332.819 389.07 332.65C384.859 332.443 380.638 332.537 376.44 332.93C374.23 333.14 371.97 333.44 369.68 333.87C367.343 334.301 365.035 334.879 362.77 335.6C360.422 336.32 358.171 337.328 356.07 338.6C355.004 339.259 354.043 340.074 353.22 341.02C352.814 341.504 352.478 342.043 352.22 342.62C351.96 343.197 351.825 343.822 351.825 344.455C351.825 345.088 351.96 345.713 352.22 346.29C352.481 346.865 352.818 347.403 353.22 347.89C354.044 348.839 355.008 349.655 356.08 350.31C358.176 351.592 360.428 352.6 362.78 353.31C365.043 354.039 367.352 354.62 369.69 355.05C371.97 355.47 374.24 355.78 376.45 355.99C380.648 356.378 384.869 356.472 389.08 356.27C392.744 356.121 396.393 355.716 400 355.06C402.981 354.515 405.906 353.701 408.74 352.63C410.897 351.853 412.921 350.746 414.74 349.35C415.397 348.837 415.982 348.238 416.48 347.57C416.587 347.434 416.684 347.29 416.77 347.14C416.861 347.01 416.941 346.873 417.01 346.73L417.21 346.34C417.21 346.21 417.3 346.08 417.34 345.97C417.414 345.765 417.471 345.554 417.51 345.34C417.51 345.25 417.51 345.16 417.56 345.08V344.87V344.49C417.56 344.49 417.56 344.62 417.56 344.87V345.09C417.56 345.17 417.56 345.25 417.56 345.34C417.529 345.558 417.476 345.773 417.4 345.98C417.4 346.09 417.32 346.22 417.27 346.35L417.08 346.74C417.01 346.885 416.93 347.026 416.84 347.16C416.74 347.3 416.67 347.46 416.55 347.6C416.048 348.27 415.463 348.875 414.81 349.4C412.994 350.808 410.97 351.925 408.81 352.71C405.975 353.793 403.046 354.613 400.06 355.16C396.445 355.85 392.786 356.281 389.11 356.45C384.896 356.658 380.672 356.572 376.47 356.19C374.25 355.98 371.98 355.67 369.69 355.19C367.344 354.768 365.029 354.19 362.76 353.46C360.401 352.742 358.141 351.734 356.03 350.46C354.944 349.792 353.966 348.962 353.13 348C352.722 347.506 352.386 346.957 352.13 346.37C351.86 345.775 351.72 345.129 351.72 344.475C351.72 343.821 351.86 343.175 352.13 342.58C352.386 341.993 352.722 341.444 353.13 340.95C353.958 339.996 354.926 339.174 356 338.51C358.107 337.228 360.368 336.22 362.73 335.51C365.001 334.782 367.315 334.201 369.66 333.77C371.95 333.35 374.22 333.04 376.44 332.83C380.642 332.448 384.866 332.361 389.08 332.57C392.755 332.741 396.414 333.169 400.03 333.85C403.015 334.406 405.943 335.229 408.78 336.31C410.939 337.097 412.963 338.214 414.78 339.62C415.436 340.142 416.02 340.747 416.52 341.42C416.64 341.56 416.71 341.72 416.81 341.86C416.898 341.992 416.978 342.129 417.05 342.27L417.24 342.67C417.29 342.8 417.33 342.92 417.37 343.04C417.447 343.247 417.501 343.461 417.53 343.68C417.53 343.77 417.53 343.85 417.53 343.93V344.14C417.62 344.36 417.62 344.49 417.62 344.49Z" fill="#F2C94C"/>
<path d="M405.6 317.21L405.27 317L405.09 316.89L404.86 316.77C404.667 316.67 404.467 316.586 404.26 316.52L403.89 316.4L403.46 316.32C403.303 316.281 403.142 316.257 402.98 316.25C402.807 316.239 402.633 316.239 402.46 316.25C401.628 316.235 400.798 316.329 399.99 316.53C397.777 317.112 395.665 318.029 393.73 319.25C391.148 320.834 388.715 322.648 386.46 324.67C383.712 327.109 381.138 329.739 378.76 332.54C376.019 335.737 373.509 339.126 371.25 342.68C370.06 344.56 368.91 346.54 367.85 348.61C366.759 350.709 365.807 352.877 365 355.1C364.133 357.402 363.558 359.804 363.29 362.25C363.156 363.498 363.214 364.759 363.46 365.99C363.597 366.602 363.812 367.193 364.1 367.75C364.414 368.302 364.827 368.79 365.32 369.19C365.824 369.563 366.394 369.838 367 370C367.612 370.148 368.241 370.212 368.87 370.19C370.125 370.12 371.363 369.86 372.54 369.42C374.826 368.551 376.996 367.402 379 366C380.96 364.657 382.831 363.187 384.6 361.6C386.34 360.05 387.97 358.45 389.49 356.83C392.384 353.752 395.057 350.474 397.49 347.02C399.609 344.021 401.514 340.877 403.19 337.61C404.588 334.92 405.739 332.108 406.63 329.21C407.33 327.031 407.69 324.758 407.7 322.47C407.693 321.639 407.579 320.812 407.36 320.01C407.36 319.83 407.25 319.67 407.2 319.51C407.15 319.36 407.089 319.213 407.02 319.07L406.83 318.68C406.76 318.56 406.68 318.45 406.62 318.34C406.498 318.158 406.365 317.984 406.22 317.82L406.06 317.63L405.9 317.48L405.62 317.22L405.91 317.47L406.07 317.61L406.24 317.81C406.389 317.97 406.523 318.145 406.64 318.33L406.86 318.66C406.92 318.78 406.98 318.92 407.05 319.05C407.122 319.195 407.182 319.345 407.23 319.5C407.297 319.659 407.354 319.823 407.4 319.99C407.63 320.797 407.751 321.631 407.76 322.47C407.754 324.767 407.4 327.049 406.71 329.24C405.823 332.141 404.675 334.956 403.28 337.65C401.614 340.93 399.712 344.085 397.59 347.09C395.179 350.553 392.523 353.838 389.64 356.92C388.11 358.55 386.49 360.15 384.74 361.7C382.97 363.296 381.096 364.773 379.13 366.12C377.102 367.541 374.905 368.703 372.59 369.58C371.403 370.023 370.155 370.282 368.89 370.35C368.244 370.377 367.598 370.313 366.97 370.16C366.343 369.991 365.752 369.706 365.23 369.32C364.722 368.912 364.297 368.409 363.98 367.84C363.675 367.27 363.449 366.661 363.31 366.03C363.067 364.785 363.014 363.511 363.15 362.25C363.421 359.791 363.999 357.375 364.87 355.06C365.682 352.819 366.641 350.635 367.74 348.52C368.81 346.45 369.96 344.47 371.15 342.59C373.422 339.034 375.942 335.643 378.69 332.44C381.072 329.636 383.652 327.006 386.41 324.57C388.678 322.553 391.121 320.743 393.71 319.16C395.655 317.937 397.777 317.02 400 316.44C400.815 316.246 401.652 316.155 402.49 316.17C402.67 316.17 402.84 316.17 403.01 316.17C403.171 316.182 403.332 316.205 403.49 316.24L403.91 316.33L404.29 316.45C404.497 316.519 404.698 316.606 404.89 316.71L405.12 316.83L405.3 316.95L405.6 317.21Z" fill="#F2C94C"/>
<path d="M351.42 358.08C351.534 358.193 351.624 358.328 351.686 358.477C351.748 358.625 351.779 358.784 351.779 358.945C351.779 359.106 351.748 359.265 351.686 359.413C351.624 359.562 351.534 359.697 351.42 359.81C351.188 360.035 350.878 360.162 350.555 360.162C350.232 360.162 349.921 360.035 349.69 359.81C349.576 359.696 349.486 359.562 349.425 359.413C349.363 359.265 349.332 359.106 349.332 358.945C349.332 358.784 349.363 358.625 349.425 358.477C349.486 358.328 349.576 358.194 349.69 358.08C349.803 357.966 349.938 357.876 350.087 357.815C350.235 357.753 350.394 357.722 350.555 357.722C350.715 357.722 350.875 357.753 351.023 357.815C351.171 357.876 351.306 357.966 351.42 358.08Z" fill="#F2C94C"/>
<path d="M420.41 320.19C420.418 320.435 420.353 320.676 420.222 320.884C420.092 321.091 419.903 321.255 419.679 321.354C419.455 321.454 419.207 321.484 418.966 321.441C418.724 321.398 418.501 321.284 418.325 321.114C418.149 320.944 418.028 320.725 417.977 320.485C417.927 320.245 417.949 319.996 418.04 319.769C418.132 319.542 418.29 319.347 418.493 319.21C418.696 319.073 418.935 319 419.18 319C419.499 319 419.806 319.124 420.036 319.346C420.265 319.568 420.4 319.871 420.41 320.19Z" fill="#F2C94C"/>
<path d="M359.14 362.1C359.14 362.161 359.122 362.221 359.088 362.272C359.054 362.323 359.005 362.363 358.949 362.386C358.892 362.41 358.83 362.416 358.77 362.404C358.709 362.392 358.654 362.363 358.611 362.319C358.567 362.276 358.538 362.221 358.526 362.16C358.514 362.1 358.52 362.038 358.544 361.981C358.567 361.925 358.607 361.876 358.658 361.842C358.709 361.808 358.769 361.79 358.83 361.79C358.912 361.79 358.991 361.823 359.049 361.881C359.107 361.939 359.14 362.018 359.14 362.1Z" fill="#F2C94C"/>
<path d="M365.77 327.84C365.768 327.901 365.748 327.96 365.713 328.009C365.678 328.059 365.629 328.097 365.572 328.119C365.515 328.141 365.453 328.146 365.394 328.133C365.334 328.12 365.28 328.089 365.238 328.046C365.195 328.002 365.167 327.947 365.156 327.887C365.144 327.827 365.151 327.765 365.175 327.709C365.199 327.653 365.238 327.605 365.289 327.572C365.34 327.538 365.399 327.52 365.46 327.52C365.502 327.52 365.543 327.528 365.581 327.545C365.62 327.561 365.654 327.584 365.683 327.614C365.712 327.644 365.735 327.68 365.75 327.718C365.765 327.757 365.772 327.798 365.77 327.84Z" fill="#F2C94C"/>
<path d="M414.26 344.49C414.26 344.551 414.242 344.611 414.208 344.662C414.174 344.713 414.125 344.753 414.069 344.776C414.012 344.8 413.95 344.806 413.89 344.794C413.83 344.782 413.774 344.752 413.731 344.709C413.688 344.666 413.658 344.611 413.646 344.55C413.634 344.49 413.64 344.428 413.664 344.371C413.687 344.315 413.727 344.266 413.778 344.232C413.829 344.198 413.889 344.18 413.95 344.18C414.032 344.18 414.111 344.213 414.169 344.271C414.227 344.329 414.26 344.408 414.26 344.49Z" fill="#F2C94C"/>
<path d="M418.58 330C418.58 330.061 418.562 330.121 418.528 330.172C418.494 330.223 418.445 330.263 418.389 330.286C418.332 330.31 418.27 330.316 418.21 330.304C418.149 330.292 418.094 330.263 418.051 330.219C418.007 330.176 417.978 330.121 417.966 330.06C417.954 330 417.96 329.938 417.984 329.881C418.007 329.825 418.047 329.776 418.098 329.742C418.149 329.708 418.209 329.69 418.27 329.69C418.352 329.69 418.431 329.723 418.489 329.781C418.547 329.839 418.58 329.918 418.58 330Z" fill="#F2C94C"/>
<path d="M397.64 351.32H393.8V330.41C393.8 328.042 392.859 325.77 391.185 324.095C389.51 322.421 387.238 321.48 384.87 321.48C382.502 321.48 380.23 322.421 378.556 324.095C376.881 325.77 375.94 328.042 375.94 330.41V351.32H372.1V330.41C372.1 327.023 373.445 323.775 375.84 321.38C378.235 318.985 381.483 317.64 384.87 317.64C388.257 317.64 391.505 318.985 393.9 321.38C396.295 323.775 397.64 327.023 397.64 330.41V351.32Z" fill="#F2C94C"/>
<g opacity="0.3">
<path opacity="0.3" d="M397.64 351.32H393.8V330.41C393.8 328.042 392.859 325.77 391.185 324.095C389.51 322.421 387.238 321.48 384.87 321.48C382.502 321.48 380.23 322.421 378.556 324.095C376.881 325.77 375.94 328.042 375.94 330.41V351.32H372.1V330.41C372.1 327.023 373.445 323.775 375.84 321.38C378.235 318.985 381.483 317.64 384.87 317.64C388.257 317.64 391.505 318.985 393.9 321.38C396.295 323.775 397.64 327.023 397.64 330.41V351.32Z" fill="black"/>
</g>
<path d="M399.83 342.02H369.91C368.668 342.02 367.66 343.027 367.66 344.27V361.85C367.66 363.093 368.668 364.1 369.91 364.1H399.83C401.073 364.1 402.08 363.093 402.08 361.85V344.27C402.08 343.027 401.073 342.02 399.83 342.02Z" fill="#F2C94C"/>
<g opacity="0.3">
<path opacity="0.3" d="M387.75 350.18C387.752 349.644 387.604 349.118 387.323 348.662C387.043 348.205 386.64 347.836 386.161 347.596C385.682 347.356 385.145 347.254 384.611 347.302C384.077 347.35 383.568 347.547 383.139 347.869C382.711 348.191 382.381 348.626 382.186 349.126C381.992 349.625 381.941 350.169 382.039 350.696C382.136 351.223 382.379 351.712 382.74 352.109C383.101 352.505 383.565 352.793 384.08 352.94V357.24H385.65V352.94C386.253 352.771 386.783 352.41 387.162 351.912C387.541 351.414 387.748 350.806 387.75 350.18Z" fill="black"/>
</g>
<path d="M369.49 362C369.42 362 369.35 358.31 369.35 353.77C369.35 349.23 369.42 345.55 369.49 345.55C369.56 345.55 369.64 349.23 369.64 353.77C369.64 358.31 369.57 362 369.49 362Z" fill="#FAFAFA"/>
<path d="M382.62 353.87C382.493 353.834 382.377 353.769 382.28 353.68C381.999 353.462 381.75 353.206 381.54 352.92C381.185 352.45 380.938 351.907 380.818 351.33C380.697 350.753 380.705 350.156 380.842 349.583C380.979 349.01 381.24 348.474 381.608 348.014C381.976 347.553 382.441 347.18 382.97 346.92C383.285 346.758 383.622 346.643 383.97 346.58C384.22 346.58 384.36 346.58 384.36 346.58C383.916 346.724 383.485 346.905 383.07 347.12C382.582 347.389 382.155 347.758 381.818 348.201C381.481 348.645 381.24 349.155 381.111 349.697C380.982 350.239 380.967 350.803 381.069 351.351C381.17 351.899 381.385 352.42 381.7 352.88C381.98 353.234 382.288 353.565 382.62 353.87Z" fill="#FAFAFA"/>
<path d="M435.97 383.02H330C324.853 383.02 320.68 387.193 320.68 392.34V393.48C320.68 398.627 324.853 402.8 330 402.8H435.97C441.117 402.8 445.29 398.627 445.29 393.48V392.34C445.29 387.193 441.117 383.02 435.97 383.02Z" fill="#F5F5F5"/>
<path d="M436.88 410.15H330.91C325.763 410.15 321.59 414.323 321.59 419.47V420.61C321.59 425.757 325.763 429.93 330.91 429.93H436.88C442.027 429.93 446.2 425.757 446.2 420.61V419.47C446.2 414.323 442.027 410.15 436.88 410.15Z" fill="#F5F5F5"/>
<path d="M340.37 392.76V389.89H341.56V392.72C341.56 393.72 341.98 394.09 342.69 394.09C343.4 394.09 343.84 393.69 343.84 392.72V389.89H345V392.76C345.021 393.077 344.977 393.394 344.87 393.693C344.763 393.992 344.596 394.266 344.379 394.498C344.162 394.73 343.899 394.914 343.608 395.041C343.317 395.167 343.003 395.232 342.685 395.232C342.368 395.232 342.054 395.167 341.762 395.041C341.471 394.914 341.209 394.73 340.992 394.498C340.775 394.266 340.608 393.992 340.501 393.693C340.394 393.394 340.349 393.077 340.37 392.76Z" fill="#263238"/>
<path d="M345.71 394.65L346.09 393.83C346.506 394.074 346.978 394.205 347.46 394.21C347.99 394.21 348.18 394.07 348.18 393.85C348.18 393.21 345.81 393.85 345.81 392.29C345.81 391.55 346.48 391.02 347.63 391.02C348.154 391.008 348.672 391.125 349.14 391.36L348.76 392.18C348.416 391.983 348.026 391.879 347.63 391.88C347.12 391.88 346.9 392.04 346.9 392.25C346.9 392.92 349.27 392.25 349.27 393.82C349.27 394.55 348.59 395.07 347.42 395.07C346.823 395.082 346.234 394.937 345.71 394.65Z" fill="#263238"/>
<path d="M353.81 393.37H350.81C350.872 393.616 351.02 393.831 351.227 393.977C351.435 394.122 351.688 394.187 351.94 394.16C352.124 394.168 352.307 394.139 352.479 394.073C352.651 394.008 352.808 393.908 352.94 393.78L353.55 394.43C353.241 394.724 352.857 394.927 352.439 395.015C352.022 395.103 351.588 395.074 351.186 394.93C350.785 394.785 350.431 394.532 350.165 394.198C349.899 393.865 349.731 393.464 349.68 393.04C349.68 392.769 349.735 392.5 349.841 392.251C349.948 392.002 350.104 391.776 350.301 391.589C350.497 391.402 350.73 391.257 350.984 391.163C351.238 391.068 351.509 391.027 351.78 391.04C352.047 391.033 352.312 391.08 352.561 391.178C352.809 391.275 353.036 391.422 353.227 391.608C353.418 391.794 353.57 392.017 353.673 392.263C353.777 392.509 353.83 392.773 353.83 393.04C353.83 393.15 353.81 393.27 353.81 393.37ZM350.81 392.7H352.74C352.683 392.488 352.557 392.301 352.383 392.168C352.208 392.035 351.995 391.962 351.775 391.962C351.556 391.962 351.342 392.035 351.168 392.168C350.993 392.301 350.868 392.488 350.81 392.7Z" fill="#263238"/>
<path d="M357 391V392H356.74C356.601 391.999 356.463 392.028 356.335 392.084C356.208 392.14 356.093 392.221 355.999 392.324C355.905 392.427 355.833 392.548 355.789 392.68C355.744 392.812 355.727 392.951 355.74 393.09V395H354.6V391.07H355.69V391.59C355.846 391.394 356.046 391.239 356.274 391.136C356.501 391.034 356.75 390.987 357 391Z" fill="#263238"/>
<path d="M361.73 392.76V395H360.59V392.93C360.59 392.29 360.3 392 359.79 392C359.28 392 358.85 392.33 358.85 393.06V395H357.71V391.07H358.8V391.53C358.967 391.355 359.169 391.219 359.394 391.129C359.618 391.039 359.859 390.999 360.1 391.01C360.329 390.994 360.558 391.03 360.771 391.114C360.984 391.198 361.176 391.329 361.332 391.497C361.488 391.664 361.605 391.865 361.674 392.083C361.743 392.302 361.762 392.533 361.73 392.76Z" fill="#263238"/>
<path d="M366.24 392.77V395H365.17V394.51C365.038 394.701 364.857 394.853 364.646 394.95C364.434 395.047 364.201 395.085 363.97 395.06C363.05 395.06 362.5 394.55 362.5 393.87C362.5 393.19 362.99 392.69 364.19 392.69H365.1C365.1 392.2 364.81 391.92 364.19 391.92C363.785 391.916 363.389 392.043 363.06 392.28L362.65 391.49C363.156 391.163 363.748 390.996 364.35 391.01C365.54 391 366.24 391.58 366.24 392.77ZM365.1 393.77V393.37H364.32C363.78 393.37 363.61 393.56 363.61 393.83C363.61 394.1 363.86 394.3 364.26 394.3C364.438 394.314 364.617 394.27 364.768 394.175C364.919 394.079 365.036 393.937 365.1 393.77Z" fill="#263238"/>
<path d="M373.91 392.76V395H372.77V392.93C372.77 392.29 372.49 392 372.03 392C371.57 392 371.16 392.33 371.16 393V395H370V392.93C370 392.29 369.73 392 369.25 392C368.77 392 368.39 392.33 368.39 393V395H367.25V391.07H368.34V391.52C368.496 391.352 368.687 391.219 368.899 391.131C369.112 391.043 369.34 391.002 369.57 391.01C369.823 390.996 370.076 391.048 370.304 391.16C370.531 391.272 370.726 391.441 370.87 391.65C371.042 391.442 371.259 391.275 371.505 391.164C371.752 391.053 372.02 391.001 372.29 391.01C372.519 390.992 372.749 391.026 372.962 391.11C373.176 391.194 373.368 391.324 373.524 391.493C373.68 391.661 373.795 391.863 373.862 392.082C373.929 392.302 373.945 392.533 373.91 392.76Z" fill="#263238"/>
<path d="M378.81 393.37H375.81C375.861 393.62 376.005 393.84 376.213 393.987C376.421 394.134 376.678 394.196 376.93 394.16C377.114 394.168 377.297 394.138 377.469 394.073C377.641 394.007 377.798 393.908 377.93 393.78L378.53 394.43C378.222 394.725 377.838 394.929 377.421 395.017C377.004 395.106 376.57 395.076 376.169 394.932C375.768 394.787 375.415 394.534 375.15 394.2C374.885 393.865 374.719 393.464 374.67 393.04C374.67 392.769 374.724 392.5 374.831 392.251C374.938 392.002 375.094 391.776 375.291 391.589C375.487 391.402 375.72 391.257 375.974 391.163C376.228 391.068 376.499 391.027 376.77 391.04C377.3 391.04 377.809 391.251 378.184 391.626C378.559 392.001 378.77 392.51 378.77 393.04C378.83 393.15 378.82 393.27 378.81 393.37ZM375.81 392.7H377.75C377.696 392.484 377.571 392.292 377.395 392.155C377.219 392.018 377.003 391.943 376.78 391.943C376.557 391.943 376.34 392.018 376.165 392.155C375.989 392.292 375.864 392.484 375.81 392.7Z" fill="#263238"/>
<path d="M386.35 393C386.35 394.31 385.75 395.05 384.85 395.05C384.638 395.065 384.427 395.012 384.247 394.898C384.067 394.785 383.928 394.618 383.85 394.42C383.717 394.627 383.531 394.794 383.311 394.905C383.091 395.016 382.846 395.066 382.6 395.05C382.134 395.016 381.699 394.806 381.381 394.464C381.063 394.122 380.886 393.672 380.886 393.205C380.886 392.738 381.063 392.288 381.381 391.946C381.699 391.604 382.134 391.394 382.6 391.36C382.811 391.35 383.021 391.389 383.215 391.472C383.409 391.555 383.582 391.681 383.72 391.84V391.41H384.72V393.78C384.72 394.13 384.87 394.25 385.07 394.25C385.27 394.25 385.61 393.86 385.61 393.01C385.613 392.662 385.543 392.317 385.404 391.998C385.266 391.678 385.061 391.392 384.805 391.156C384.549 390.92 384.246 390.741 383.916 390.63C383.586 390.519 383.237 390.478 382.89 390.51C382.187 390.51 381.513 390.789 381.016 391.286C380.519 391.783 380.24 392.457 380.24 393.16C380.24 393.863 380.519 394.537 381.016 395.034C381.513 395.531 382.187 395.81 382.89 395.81C383.389 395.811 383.881 395.698 384.33 395.48L384.56 396.16C384.035 396.395 383.465 396.515 382.89 396.51C382.002 396.51 381.149 396.157 380.521 395.529C379.893 394.9 379.54 394.048 379.54 393.16C379.54 392.271 379.893 391.419 380.521 390.791C381.149 390.163 382.002 389.81 382.89 389.81C383.331 389.774 383.774 389.83 384.192 389.974C384.61 390.118 384.994 390.347 385.319 390.647C385.644 390.946 385.904 391.31 386.081 391.715C386.259 392.12 386.35 392.558 386.35 393ZM383.74 393.2C383.754 393.072 383.741 392.942 383.701 392.82C383.661 392.697 383.595 392.585 383.508 392.49C383.421 392.395 383.314 392.32 383.196 392.27C383.077 392.22 382.949 392.196 382.82 392.2C382.692 392.197 382.566 392.223 382.449 392.273C382.332 392.324 382.227 392.4 382.142 392.494C382.056 392.589 381.992 392.701 381.954 392.823C381.916 392.945 381.904 393.073 381.92 393.2C381.92 393.441 382.016 393.673 382.187 393.843C382.357 394.014 382.589 394.11 382.83 394.11C383.071 394.11 383.303 394.014 383.474 393.843C383.644 393.673 383.74 393.441 383.74 393.2Z" fill="#263238"/>
<path d="M393.8 392.76V395H392.66V392.93C392.66 392.29 392.38 392 391.91 392C391.44 392 391.05 392.33 391.05 393V395H389.9V392.93C389.9 392.29 389.63 392 389.16 392C388.69 392 388.3 392.33 388.3 393V395H387.16V391.07H388.25V391.52C388.407 391.352 388.597 391.219 388.81 391.131C389.022 391.043 389.251 391.002 389.48 391.01C389.732 390.995 389.984 391.046 390.21 391.158C390.436 391.271 390.629 391.44 390.77 391.65C390.943 391.443 391.161 391.278 391.407 391.167C391.653 391.057 391.921 391.003 392.19 391.01C392.418 390.994 392.647 391.029 392.859 391.113C393.072 391.198 393.262 391.329 393.417 391.497C393.572 391.665 393.686 391.866 393.753 392.085C393.819 392.303 393.835 392.534 393.8 392.76Z" fill="#263238"/>
<path d="M398.3 392.77V395H397.24V394.51C397.107 394.7 396.926 394.852 396.715 394.949C396.504 395.045 396.271 395.084 396.04 395.06C395.12 395.06 394.57 394.55 394.57 393.87C394.57 393.19 395.06 392.69 396.26 392.69H397.16C397.16 392.2 396.87 391.92 396.26 391.92C395.852 391.921 395.454 392.046 395.12 392.28L394.72 391.49C395.223 391.165 395.811 390.998 396.41 391.01C397.61 391 398.3 391.58 398.3 392.77ZM397.16 393.77V393.37H396.38C395.85 393.37 395.68 393.56 395.68 393.83C395.68 394.1 395.92 394.3 396.32 394.3C396.498 394.314 396.676 394.27 396.828 394.174C396.979 394.079 397.096 393.937 397.16 393.77Z" fill="#263238"/>
<path d="M399.2 389.89C399.203 389.802 399.223 389.715 399.26 389.635C399.297 389.555 399.35 389.484 399.415 389.425C399.481 389.366 399.557 389.321 399.641 389.293C399.724 389.264 399.812 389.253 399.9 389.26C399.987 389.25 400.076 389.259 400.16 389.285C400.244 389.311 400.321 389.353 400.388 389.411C400.454 389.468 400.508 389.538 400.547 389.617C400.585 389.696 400.607 389.782 400.61 389.87C400.612 389.961 400.594 390.052 400.559 390.137C400.523 390.221 400.47 390.297 400.403 390.359C400.336 390.421 400.256 390.469 400.17 390.498C400.083 390.528 399.991 390.538 399.9 390.53C399.812 390.537 399.722 390.525 399.638 390.496C399.554 390.468 399.477 390.422 399.412 390.362C399.346 390.302 399.293 390.229 399.257 390.148C399.221 390.067 399.201 389.979 399.2 389.89ZM399.33 391.08H400.47V395H399.33V391.08Z" fill="#263238"/>
<path d="M401.53 389.59H402.67V395H401.53V389.59Z" fill="#263238"/>
<path d="M403.46 394.35C403.481 394.177 403.564 394.019 403.694 393.903C403.824 393.788 403.991 393.724 404.165 393.724C404.339 393.724 404.506 393.788 404.636 393.903C404.766 394.019 404.849 394.177 404.87 394.35C404.882 394.45 404.872 394.551 404.842 394.646C404.812 394.742 404.763 394.83 404.696 394.905C404.629 394.981 404.548 395.041 404.456 395.082C404.364 395.123 404.265 395.144 404.165 395.144C404.065 395.144 403.965 395.123 403.874 395.082C403.782 395.041 403.701 394.981 403.634 394.905C403.567 394.83 403.517 394.742 403.487 394.646C403.457 394.551 403.448 394.45 403.46 394.35Z" fill="#263238"/>
<path d="M405.31 393C405.309 392.721 405.366 392.444 405.478 392.188C405.59 391.932 405.755 391.703 405.961 391.514C406.167 391.326 406.411 391.183 406.676 391.094C406.941 391.006 407.222 390.973 407.5 391C407.859 390.974 408.218 391.055 408.532 391.233C408.845 391.411 409.098 391.678 409.26 392L408.38 392.48C408.295 392.317 408.168 392.18 408.011 392.085C407.854 391.99 407.673 391.94 407.49 391.94C407.22 391.966 406.97 392.091 406.787 392.292C406.605 392.493 406.504 392.754 406.504 393.025C406.504 393.296 406.605 393.557 406.787 393.758C406.97 393.959 407.22 394.084 407.49 394.11C407.673 394.11 407.854 394.06 408.011 393.965C408.168 393.87 408.295 393.733 408.38 393.57L409.26 394.06C409.096 394.381 408.842 394.646 408.53 394.824C408.217 395.002 407.859 395.084 407.5 395.06C407.217 395.087 406.931 395.054 406.661 394.962C406.392 394.869 406.146 394.721 405.938 394.526C405.731 394.331 405.568 394.094 405.459 393.831C405.351 393.568 405.3 393.284 405.31 393Z" fill="#263238"/>
<path d="M409.57 393C409.538 392.568 409.636 392.136 409.853 391.761C410.07 391.385 410.394 391.084 410.784 390.895C411.174 390.707 411.612 390.64 412.041 390.704C412.47 390.767 412.869 390.958 413.188 391.252C413.506 391.546 413.729 391.928 413.828 392.35C413.926 392.772 413.895 393.214 413.739 393.619C413.583 394.023 413.309 394.371 412.952 394.617C412.596 394.863 412.173 394.997 411.74 395C411.463 395.024 411.185 394.989 410.922 394.9C410.66 394.81 410.419 394.666 410.214 394.478C410.01 394.29 409.848 394.061 409.737 393.807C409.626 393.552 409.569 393.278 409.57 393ZM412.74 393C412.722 392.807 412.649 392.623 412.529 392.471C412.409 392.319 412.248 392.205 412.064 392.143C411.881 392.081 411.683 392.073 411.495 392.122C411.308 392.17 411.138 392.271 411.007 392.414C410.876 392.557 410.789 392.735 410.758 392.926C410.726 393.117 410.75 393.313 410.828 393.491C410.905 393.668 411.033 393.819 411.195 393.926C411.357 394.032 411.546 394.089 411.74 394.09C411.879 394.091 412.017 394.062 412.145 394.006C412.272 393.951 412.387 393.869 412.481 393.766C412.575 393.664 412.647 393.542 412.691 393.41C412.736 393.279 412.752 393.139 412.74 393Z" fill="#263238"/>
<path d="M421.3 392.76V395H420.16V392.93C420.16 392.29 419.87 392 419.41 392C418.95 392 418.54 392.33 418.54 393V395H417.4V392.93C417.4 392.29 417.13 392 416.66 392C416.19 392 415.79 392.33 415.79 393V395H414.65V391.07H415.74V391.52C415.9 391.348 416.096 391.212 416.313 391.122C416.531 391.032 416.765 390.991 417 391C417.252 390.986 417.503 391.038 417.729 391.15C417.956 391.262 418.149 391.431 418.29 391.64C418.463 391.433 418.681 391.268 418.927 391.157C419.173 391.047 419.44 390.993 419.71 391C419.937 390.987 420.165 391.024 420.375 391.111C420.586 391.197 420.775 391.329 420.927 391.498C421.08 391.667 421.193 391.868 421.257 392.087C421.322 392.305 421.336 392.535 421.3 392.76Z" fill="#263238"/>
<path d="M355.64 420.15L357.49 421.15L356.66 422.54L354.79 421.44V423.49H353.19V421.42L351.32 422.54L350.5 421.15L352.36 420.15L350.5 419.15L351.32 417.76L353.19 418.88V416.8H354.79V418.88L356.66 417.76L357.49 419.15L355.64 420.15Z" fill="#263238"/>
<path d="M363.35 420.15L365.2 421.15L364.37 422.54L362.5 421.44V423.49H360.91V421.42L359.05 422.54L358.23 421.15L360.08 420.15L358.23 419.15L359.05 417.76L360.91 418.88V416.8H362.5V418.88L364.37 417.76L365.2 419.15L363.35 420.15Z" fill="#263238"/>
<path d="M371.06 420.15L372.91 421.15L372.07 422.54L370.21 421.44V423.49H368.61V421.42L366.74 422.54L365.93 421.15L367.78 420.15L365.93 419.15L366.74 417.76L368.61 418.88V416.8H370.21V418.88L372.07 417.76L372.91 419.15L371.06 420.15Z" fill="#263238"/>
<path d="M378.76 420.15L380.61 421.15L379.78 422.54L377.91 421.44V423.49H376.31V421.42L374.44 422.54L373.62 421.15L375.48 420.15L373.62 419.15L374.44 417.76L376.31 418.88V416.8H378V418.88L379.87 417.76L380.7 419.15L378.76 420.15Z" fill="#263238"/>
<path d="M386.47 420.15L388.32 421.15L387.49 422.54L385.62 421.44V423.49H384.03V421.42L382.17 422.54L381.35 421.15L383.2 420.15L381.35 419.15L382.17 417.76L384.03 418.88V416.8H385.62V418.88L387.49 417.76L388.32 419.15L386.47 420.15Z" fill="#263238"/>
<path d="M394.18 420.15L396.03 421.15L395.19 422.54L393.33 421.44V423.49H391.73V421.42L389.86 422.54L389.05 421.15L390.9 420.15L389.05 419.15L389.86 417.76L391.73 418.88V416.8H393.33V418.88L395.19 417.76L396.03 419.15L394.18 420.15Z" fill="#263238"/>
<path d="M401.88 420.15L403.73 421.15L402.9 422.54L401.03 421.44V423.49H399.43V421.42L397.56 422.54L396.74 421.15L398.6 420.15L396.74 419.15L397.56 417.76L399.43 418.88V416.8H401.03V418.88L402.9 417.76L403.73 419.15L401.88 420.15Z" fill="#263238"/>
<path d="M409.59 420.15L411.44 421.15L410.61 422.54L408.74 421.44V423.49H407.15V421.42L405.29 422.54L404.47 421.15L406.32 420.15L404.47 419.15L405.29 417.76L407.15 418.88V416.8H408.74V418.88L410.61 417.76L411.44 419.15L409.59 420.15Z" fill="#263238"/>
<path d="M514.47 647.07C527.56 641.52 542.72 630.58 549.47 617.18C534.945 623.205 522.695 633.667 514.47 647.07Z" fill="#263238"/>
<path d="M517.26 626.27C530.35 620.71 545.5 609.78 552.26 596.38C537.729 602.396 525.477 612.86 517.26 626.27Z" fill="#263238"/>
<path d="M521 606C534.1 600.44 549.25 589.51 556 576.1C541.474 582.129 529.224 592.594 521 606Z" fill="#263238"/>
<path d="M525.79 584.86C538.14 577.53 551.91 564.59 557.04 550.38C543.312 558.37 532.396 570.415 525.79 584.86Z" fill="#263238"/>
<path d="M530.87 568.65C539.87 556.88 548.26 539.36 548.15 524.18C538.144 536.983 532.134 552.45 530.87 568.65Z" fill="#263238"/>
<path d="M528.35 576.35C526.53 560.44 520.35 540.42 509.83 528.49C511.606 545.814 518.002 562.343 528.35 576.35Z" fill="#263238"/>
<path d="M524.12 593.76C520.91 577.35 512.82 557.06 500.88 545.55C504.146 563.419 512.175 580.075 524.12 593.76Z" fill="#263238"/>
<path d="M519.26 615C516.05 598.59 508 578.29 496 566.78C499.275 584.653 507.31 601.312 519.26 615Z" fill="#263238"/>
<path d="M515.36 641.06C512.15 624.65 504.05 604.36 492.12 592.85C495.386 610.719 503.415 627.375 515.36 641.06Z" fill="#263238"/>
<path d="M531.48 565.53C531.431 565.604 531.394 565.685 531.37 565.77C531.31 565.97 531.23 566.21 531.13 566.51C530.91 567.2 530.6 568.14 530.22 569.35C529.43 571.81 528.37 575.41 527.12 579.86C525.87 584.31 524.49 589.66 523.07 595.61C521.65 601.56 520.24 608.15 518.93 615.09C517.62 622.03 516.57 628.68 515.71 634.75C514.85 640.82 514.22 646.28 513.77 650.89C513.32 655.5 513 659.23 512.84 661.81C512.76 663.07 512.7 664.07 512.65 664.81C512.65 665.12 512.65 665.38 512.65 665.58C512.639 665.67 512.639 665.76 512.65 665.85C512.675 665.765 512.691 665.678 512.7 665.59C512.7 665.38 512.75 665.13 512.78 664.82C512.85 664.1 512.95 663.11 513.07 661.82C513.29 659.24 513.66 655.52 514.16 650.92C514.66 646.32 515.35 640.86 516.21 634.8C517.07 628.74 518.21 622.11 519.46 615.17C520.71 608.23 522.18 601.67 523.55 595.71C524.92 589.75 526.29 584.41 527.55 579.95C528.81 575.49 529.76 571.88 530.49 569.4C530.84 568.18 531.11 567.22 531.31 566.53C531.39 566.22 531.45 565.98 531.51 565.78C531.504 565.696 531.494 565.613 531.48 565.53Z" fill="#263238"/>
<path d="M508.09 655.74C513.64 644.11 517.68 627.74 514.96 615.01C508.753 627.628 506.366 641.784 508.09 655.74Z" fill="#455A64"/>
<path d="M498.86 640.69C504.41 629.06 508.45 612.69 505.72 599.95C499.512 612.571 497.128 626.732 498.86 640.69Z" fill="#455A64"/>
<path d="M490.58 625.38C496.13 613.75 500.17 597.38 497.44 584.64C491.232 597.262 488.848 611.422 490.58 625.38Z" fill="#455A64"/>
<path d="M482.42 608.87C486.54 596.56 488.62 579.79 484.42 567.51C479.761 580.812 479.066 595.181 482.42 608.87Z" fill="#455A64"/>
<path d="M477.11 595.35C476.7 582.26 472.85 565.86 464.72 556.19C464.902 570.179 469.212 583.802 477.11 595.35Z" fill="#455A64"/>
<path d="M479.56 601.84C469.93 592.75 455.29 583.73 442.13 582.55C452.423 592.542 465.449 599.255 479.56 601.84Z" fill="#455A64"/>
<path d="M486.06 615.61C475.26 607.06 459.23 599.03 445.37 599C456.984 608.453 471.149 614.235 486.06 615.61Z" fill="#455A64"/>
<path d="M494.17 632.22C483.38 623.67 467.35 615.64 453.48 615.61C465.095 625.061 479.259 630.843 494.17 632.22Z" fill="#455A64"/>
<path d="M505.48 651.34C494.69 642.79 478.65 634.76 464.79 634.73C476.404 644.183 490.569 649.965 505.48 651.34Z" fill="#455A64"/>
<path d="M475.85 593C475.85 593 475.85 593.08 475.91 593.22L476.13 593.84L477.03 596.19C477.82 598.19 479.03 601.19 480.56 604.76C483.64 611.96 488.21 621.76 493.88 632.3C496.72 637.56 499.56 642.49 502.23 646.93C504.9 651.37 507.42 655.3 509.59 658.55C511.76 661.8 513.59 664.43 514.83 666.2C515.45 667.06 515.94 667.75 516.31 668.25L516.7 668.77C516.74 668.835 516.791 668.892 516.85 668.94C516.82 668.87 516.783 668.803 516.74 668.74L516.39 668.19C516.04 667.68 515.58 666.98 514.99 666.09C513.75 664.29 511.99 661.65 509.88 658.36C507.77 655.07 505.28 651.13 502.62 646.7C499.96 642.27 497.15 637.32 494.31 632.07C488.64 621.56 484.04 611.78 480.88 604.63C479.3 601.05 478.05 598.14 477.21 596.12L476.21 593.8C476.1 593.56 476.02 593.36 475.94 593.2L475.85 593Z" fill="#263238"/>
<path d="M481.65 657.14H536.81V667.78H531.14L526.37 698.1H492.27L487.36 667.78H481.65V657.14Z" fill="#F2C94C"/>
<path d="M481.65 667.55C481.65 667.41 493.91 667.3 509.03 667.3C524.15 667.3 536.41 667.41 536.41 667.55C536.41 667.69 524.16 667.81 509.03 667.81C493.9 667.81 481.65 667.7 481.65 667.55Z" fill="#263238"/>
<path d="M165.68 698.11H156.73L153.41 657.81H163.95L165.68 698.11Z" fill="#263238"/>
<path d="M243.27 698.11H252.23L255.55 657.81H245L243.27 698.11Z" fill="#263238"/>
<path d="M261.7 662.91L146.46 665.62L143 591.19C142.918 589.466 143.185 587.743 143.787 586.126C144.388 584.508 145.311 583.029 146.5 581.778C147.688 580.527 149.118 579.529 150.703 578.845C152.287 578.162 153.994 577.806 155.72 577.8H253.91C255.663 577.801 257.397 578.163 259.004 578.862C260.612 579.562 262.058 580.584 263.253 581.866C264.449 583.148 265.368 584.662 265.954 586.314C266.54 587.966 266.781 589.721 266.66 591.47L261.7 662.91Z" fill="#D11A30"/>
<path d="M267.61 590.93H267.29H266.34L262.71 590.98H249.35C238.07 590.98 222.49 590.87 205.29 591.27C188.08 591.84 172.48 591.75 161.21 591.58C155.57 591.49 151 591.38 147.85 591.28L144.22 591.16H143.28C143.174 591.175 143.066 591.175 142.96 591.16C143.066 591.144 143.174 591.144 143.28 591.16H144.22H147.85L161.21 591.29C172.49 591.36 188.07 591.4 205.27 590.83C222.49 590.43 238.07 590.62 249.35 590.69L262.71 590.81H266.34H267.29L267.61 590.93Z" fill="#263238"/>
<path d="M185 579C182.409 579.372 179.889 580.127 177.52 581.24C175.226 582.515 173.13 584.119 171.3 586C171.664 585.304 172.148 584.678 172.73 584.15C175.375 581.382 178.864 579.571 182.65 579C183.427 578.861 184.223 578.861 185 579Z" fill="#263238"/>
<path d="M232.39 443.64L246.47 469.37L267.11 457.83L277.11 461.14C277.11 461.14 251.83 488.59 247.72 490C243.61 491.41 235.83 491.65 231.38 486.09C227.38 481.02 215.55 454.41 215.55 454.41L232.39 443.64Z" fill="#FFBE9D"/>
<path d="M290.38 426.84C290.199 426.618 289.964 426.447 289.698 426.341C289.432 426.236 289.143 426.202 288.86 426.24L279 427.59C278.575 427.655 278.168 427.809 277.806 428.041C277.444 428.274 277.135 428.58 276.9 428.94L256.53 460.26L258.09 461.14L269 460.8L290.71 427.22L290.38 426.84Z" fill="#263238"/>
<path d="M283.43 430.91C283.565 430.99 283.724 431.017 283.878 430.985C284.031 430.954 284.167 430.866 284.26 430.74C284.376 430.634 284.447 430.488 284.458 430.332C284.469 430.175 284.42 430.021 284.32 429.9C284.188 429.816 284.029 429.786 283.875 429.818C283.722 429.85 283.588 429.94 283.5 430.07C283.38 430.173 283.306 430.318 283.293 430.476C283.28 430.633 283.329 430.789 283.43 430.91Z" fill="white"/>
<path d="M290.69 427.22C290.067 427.394 289.432 427.521 288.79 427.6L283.59 428.4L280 428.93C279.697 428.957 279.403 429.051 279.141 429.205C278.878 429.359 278.652 429.569 278.48 429.82L277.32 431.62C275.71 434.1 273.96 436.81 272.11 439.62C268.41 445.3 265.02 450.43 262.55 454.12L259.55 458.48C259.213 459.032 258.824 459.551 258.39 460.03C258.682 459.45 259.017 458.891 259.39 458.36L262.19 453.89C264.57 450.14 267.9 444.98 271.61 439.29L276.85 431.29L278.04 429.49C278.252 429.182 278.53 428.925 278.853 428.739C279.177 428.552 279.538 428.439 279.91 428.41L283.52 427.95L288.75 427.33C289.393 427.245 290.042 427.208 290.69 427.22Z" fill="#455A64"/>
<path d="M279.8 438.42C279.8 438.42 278.93 438.26 278.45 440.66C277.97 443.06 276.45 449.91 276.45 449.91L271.86 447.48L266.13 448.22C266.13 448.22 264.88 449.38 265.8 450.01C266.72 450.64 270.34 451.28 270.34 451.28L273.01 455.12L265.34 451.43C265.34 451.43 262.78 452.09 263.53 453.66C264.28 455.23 269.45 460.11 269.45 460.11L265.61 459.81L261 457C261 457 259.6 457.06 260.12 458.26C260.64 459.46 265.4 463.77 265.4 463.77L271.16 466.56C271.16 466.56 274.31 466.32 274.61 465.39C274.814 464.659 274.941 463.908 274.99 463.15C274.99 463.15 276.66 462.7 276.99 461.89C277.174 461.209 277.211 460.497 277.1 459.8C277.1 459.8 279.72 460.26 280.1 458.8C280.329 456.977 280.255 455.129 279.88 453.33C279.62 452.21 281 441.76 280.88 441.45C280.76 441.14 281.45 437.73 279.8 438.42Z" fill="#FFBE9D"/>
<path d="M274.83 465.44C274.379 465.724 273.862 465.886 273.33 465.91C270.775 466.281 268.174 465.662 266.06 464.18C265.26 463.61 264.88 463.18 264.93 463.09C264.98 463 266.86 464.52 269.66 465.16C272.46 465.8 274.8 465.26 274.83 465.44Z" fill="#EB996E"/>
<path d="M273.46 463.38C273.37 463.51 272.35 462.97 271.26 462.08C270.17 461.19 269.45 460.29 269.56 460.17C269.67 460.05 270.56 460.75 271.64 461.62C272.72 462.49 273.56 463.24 273.46 463.38Z" fill="#EB996E"/>
<path d="M276.5 458.4C276.41 458.54 275.39 458.02 274.37 457.07C273.35 456.12 272.75 455.16 272.87 455.07C272.99 454.98 273.78 455.74 274.77 456.64C275.76 457.54 276.59 458.27 276.5 458.4Z" fill="#EB996E"/>
<path d="M279.68 454.4C279.53 454.47 278.95 453.4 278.03 452.21C277.11 451.02 276.23 450.21 276.34 450.05C276.45 449.89 277.54 450.59 278.5 451.85C279.163 452.547 279.577 453.443 279.68 454.4Z" fill="#EB996E"/>
<path d="M283.58 639.86C283.656 639.548 283.656 639.222 283.58 638.91C283.424 638.044 283.083 637.222 282.58 636.5C282.418 636.245 282.226 636.011 282.01 635.8C281.867 635.668 281.692 635.577 281.502 635.534C281.312 635.492 281.115 635.501 280.93 635.56C280.82 635.599 280.721 635.663 280.64 635.746C280.558 635.829 280.497 635.93 280.46 636.04C280.39 636.248 280.39 636.472 280.46 636.68C280.594 637.029 280.762 637.363 280.96 637.68C281.33 638.31 281.64 638.93 282.11 639.68C282.252 639.882 282.446 640.042 282.671 640.144C282.896 640.246 283.144 640.286 283.39 640.26C283.839 640.181 284.262 639.992 284.62 639.71C285.28 639.225 285.883 638.669 286.42 638.05C286.68 637.75 286.92 637.43 287.14 637.12C287.385 636.802 287.565 636.438 287.67 636.05C287.73 635.824 287.708 635.584 287.61 635.372C287.511 635.16 287.341 634.99 287.13 634.89C286.932 634.834 286.723 634.828 286.522 634.873C286.321 634.919 286.134 635.014 285.98 635.15C285.524 635.555 285.121 636.015 284.78 636.52C284.274 637.225 283.874 638 283.59 638.82C283.457 639.109 283.389 639.423 283.39 639.74C283.859 638.686 284.431 637.681 285.1 636.74C285.435 636.285 285.825 635.872 286.26 635.51C286.351 635.429 286.46 635.37 286.578 635.339C286.696 635.308 286.82 635.305 286.94 635.33C287.038 635.391 287.113 635.484 287.153 635.592C287.193 635.701 287.195 635.82 287.16 635.93C287.056 636.243 286.897 636.534 286.69 636.79C286.477 637.093 286.247 637.384 286 637.66C285.491 638.246 284.917 638.773 284.29 639.23C284 639.462 283.656 639.617 283.29 639.68C283.141 639.698 282.989 639.674 282.853 639.611C282.717 639.547 282.601 639.446 282.52 639.32C282.12 638.75 281.75 638.04 281.38 637.45C281.2 637.172 281.039 636.881 280.9 636.58C280.81 636.31 280.9 636.14 281.05 636.06C281.48 635.88 281.9 636.37 282.2 636.79C282.849 637.718 283.317 638.759 283.58 639.86Z" fill="#263238"/>
<path d="M259.01 640.7L246.81 667.14L227.11 658.05L239.74 625.32L259.01 640.7Z" fill="#FFBE9D"/>
<path d="M249.11 665.38L242 679C242 679 260.25 697.86 258.54 702.08L215.64 681.51L227.4 654.22L249.11 665.38Z" fill="#455A64"/>
<path d="M229.61 670.76C229.138 670.687 228.656 670.79 228.256 671.05C227.855 671.31 227.565 671.709 227.44 672.17C227.349 672.641 227.443 673.129 227.702 673.533C227.96 673.937 228.364 674.226 228.83 674.34C229.332 674.413 229.843 674.298 230.266 674.018C230.688 673.737 230.992 673.311 231.12 672.82C231.163 672.319 231.009 671.822 230.692 671.432C230.375 671.042 229.919 670.79 229.42 670.73" fill="#E0E0E0"/>
<g opacity="0.6">
<path opacity="0.6" d="M215.62 681.49L217.4 678.07L257.87 699.07C257.87 699.07 259.38 700.82 258.52 702.07L215.62 681.49Z" fill="white"/>
</g>
<path d="M242.78 679.09C242.68 679.3 241.58 678.89 240.23 679.09C238.88 679.29 237.9 679.89 237.75 679.71C237.6 679.53 238.49 678.47 240.13 678.29C241.77 678.11 242.92 678.92 242.78 679.09Z" fill="#263238"/>
<path d="M246.39 683.11C246.39 683.33 245.26 683.26 244.13 683.8C243 684.34 242.33 685.18 242.13 685.08C241.93 684.98 242.36 683.72 243.79 683.08C245.22 682.44 246.48 682.91 246.39 683.11Z" fill="#263238"/>
<path d="M246.36 689.72C246.15 689.67 246.36 688.49 247.45 687.6C248.54 686.71 249.74 686.72 249.74 686.94C249.74 687.16 248.85 687.48 247.96 688.22C247.07 688.96 246.58 689.8 246.36 689.72Z" fill="#263238"/>
<path d="M244.83 673.85C244.65 674 243.83 673.25 242.6 672.77C241.37 672.29 240.28 672.21 240.26 671.98C240.24 671.75 241.48 671.42 242.91 671.98C244.34 672.54 245 673.74 244.83 673.85Z" fill="#263238"/>
<path d="M253.13 661.85L285.3 581.36C285.3 581.36 284.57 567.62 282.04 563.28C279.51 558.94 202.89 533.65 202.89 533.65C202.89 533.65 183.37 528.95 170.36 533.65C157.35 538.35 147.59 554.65 149.36 563.65C151.13 572.65 158.79 579.32 158.79 579.32L215.18 581L245.89 592.21L225.21 651.47L253.13 661.85Z" fill="#263238"/>
<path d="M281.74 606.85L282.47 635.96L260.78 636.49L257.66 601.55L281.74 606.85Z" fill="#FFBE9D"/>
<path d="M283.76 633.36L283.36 648.71C283.36 648.71 308.06 657.58 308.36 662.12L260.78 662.6L259.32 632.93L283.76 633.36Z" fill="#455A64"/>
<path d="M268.63 646.79C268.174 646.934 267.787 647.241 267.543 647.652C267.299 648.064 267.216 648.551 267.31 649.02C267.435 649.482 267.733 649.879 268.143 650.126C268.553 650.374 269.043 650.454 269.51 650.35C269.999 650.205 270.414 649.879 270.67 649.439C270.927 648.998 271.005 648.477 270.89 647.98C270.696 647.522 270.339 647.153 269.888 646.944C269.437 646.735 268.924 646.701 268.45 646.85" fill="#E0E0E0"/>
<g opacity="0.6">
<path opacity="0.6" d="M260.81 662.6L260.91 658.75L306.49 659.75C306.49 659.75 308.61 660.65 308.39 662.14L260.81 662.6Z" fill="white"/>
</g>
<path d="M284.13 648.46C284.13 648.69 282.96 648.81 281.83 649.56C280.7 650.31 280.09 651.3 279.83 651.22C279.57 651.14 279.95 649.78 281.34 648.89C282.73 648 284.18 648.24 284.13 648.46Z" fill="#263238"/>
<path d="M289.14 650.47C289.19 650.69 288.19 651.1 287.41 652.09C286.63 653.08 286.41 654.09 286.19 654.09C285.97 654.09 285.79 652.77 286.79 651.56C287.79 650.35 289.13 650.25 289.14 650.47Z" fill="#263238"/>
<path d="M292 656.41C291.79 656.41 291.46 655.31 292 654.03C292.54 652.75 293.67 652.23 293.77 652.43C293.87 652.63 293.2 653.3 292.77 654.36C292.34 655.42 292.26 656.39 292 656.41Z" fill="#263238"/>
<path d="M283.65 642.85C283.56 643.07 282.49 642.76 281.18 642.85C279.87 642.94 278.84 643.38 278.72 643.18C278.6 642.98 279.57 642.18 281.12 642.04C282.67 641.9 283.76 642.67 283.65 642.85Z" fill="#263238"/>
<path d="M269.08 526C269.08 526 282.08 525 283.51 539.06C284.94 553.12 286.38 618.93 286.38 618.93L256 621.47L251.3 554.25L202.87 533.65C202.87 533.65 260.4 524.2 269.08 526Z" fill="#263238"/>
<path d="M215.53 507C215.53 507 223.41 529.11 221.91 531.57C220.41 534.03 200.13 544.17 200.13 544.17L149.4 563.65C149.4 563.65 144.19 555.36 144.19 542.65C144.19 529.94 161.84 507 161.84 507H215.53Z" fill="#263238"/>
<path d="M200.49 532.52L200.73 532.65L201.45 532.98L204.26 534.23L214.81 538.83L251.21 554.5L251.05 554.27C251.51 560.91 252.05 568.08 252.52 575.5C253.76 592.84 254.89 608.84 255.8 621.5V621.73H256.03L278.15 619.79L284.24 619.22L285.83 619.05C286.012 619.039 286.193 619.012 286.37 618.97H285.82L284.23 619.07L278.13 619.52L256 621.25L256.25 621.46C255.38 608.8 254.25 592.81 253.09 575.46C252.57 568.04 252.09 560.87 251.59 554.23V554.06L251.44 554L214.94 538.51L204.33 534.06L201.49 532.89L200.75 532.6L200.49 532.52Z" fill="#455A64"/>
<path d="M160.14 534.73C160.63 534.653 161.109 534.522 161.57 534.34L165.39 533.11C169.558 531.697 173.831 530.617 178.17 529.88C182.51 529.172 186.94 529.229 191.26 530.05C193.032 530.465 194.781 530.973 196.5 531.57C196.09 531.292 195.647 531.067 195.18 530.9C193.938 530.379 192.653 529.964 191.34 529.66C186.985 528.706 182.488 528.591 178.09 529.32C173.716 530.054 169.421 531.196 165.26 532.73C163.66 533.3 162.38 533.79 161.49 534.13C161.021 534.283 160.568 534.484 160.14 534.73Z" fill="#455A64"/>
<path d="M167.31 523.08C168.789 522.992 170.271 522.992 171.75 523.08C173.12 523.18 174.75 523.39 176.55 523.6C178.35 523.81 180.34 524.06 182.4 524.45C185.922 525.014 189.3 526.264 192.34 528.13C193.551 528.978 194.703 529.907 195.79 530.91C195.594 530.557 195.344 530.236 195.05 529.96C194.3 529.152 193.465 528.428 192.56 527.8C189.526 525.789 186.095 524.456 182.5 523.89C180.42 523.5 178.42 523.27 176.61 523.08C174.8 522.89 173.16 522.73 171.77 522.68C170.674 522.629 169.576 522.679 168.49 522.83C168.087 522.857 167.689 522.941 167.31 523.08Z" fill="#455A64"/>
<path d="M189.72 345.43C183.89 344.43 178.72 346.69 173.83 349.98C168.827 353.499 165.015 358.459 162.902 364.199C160.788 369.939 160.474 376.187 162 382.11C162.841 385.121 164.286 387.929 166.245 390.365C168.205 392.801 170.639 394.813 173.4 396.28C180.99 400.14 190.7 398.8 197.49 393.66C204.28 388.52 208.17 380.03 208.49 371.52C208.788 365.61 207.217 359.756 204 354.79C202.387 352.33 200.283 350.228 197.821 348.618C195.359 347.007 192.591 345.922 189.69 345.43" fill="#263238"/>
<path d="M173.12 365.28C173.97 363.05 173.64 360.56 173.98 358.19C174.73 352.98 178.92 348.8 183.78 346.77C188.3 344.88 193.78 345.29 199.26 347.05C203.045 348.19 206.425 350.39 209 353.39C210.637 355.423 211.764 357.818 212.286 360.376C212.808 362.933 212.71 365.578 212 368.09L185.33 364.21C182.84 366.27 180.33 368.37 177.25 369.52C176.378 369.91 175.42 370.065 174.47 369.97C173.997 369.914 173.551 369.723 173.184 369.419C172.817 369.116 172.544 368.714 172.4 368.26C172.15 367.25 172.75 366.25 173.12 365.28Z" fill="#263238"/>
<path d="M199.83 354.41L176.55 359.34C175.463 359.412 174.442 359.89 173.691 360.679C172.939 361.468 172.51 362.51 172.49 363.6L172.77 414C172.787 417.445 173.94 420.787 176.05 423.51L178.27 426.37C183.34 432.9 193.59 432.24 197.46 424.94C197.702 424.521 197.884 424.07 198 423.6C198.097 423.225 198.17 422.844 198.22 422.46L198.67 417.55C198.89 413.07 198.93 408.55 198.93 408.55C198.93 408.55 208.45 407.34 210.93 395.07C212.1 389 212.18 378.88 212 370.63C211.8 363.2 207.25 353.92 199.83 354.41Z" fill="#FFBE9D"/>
<path d="M208.44 380.08C208.43 380.494 208.257 380.887 207.96 381.175C207.662 381.463 207.264 381.623 206.85 381.62C206.648 381.628 206.446 381.596 206.257 381.525C206.067 381.454 205.894 381.346 205.747 381.207C205.6 381.068 205.482 380.902 205.4 380.717C205.318 380.532 205.274 380.332 205.27 380.13C205.283 379.717 205.456 379.325 205.753 379.038C206.05 378.75 206.447 378.59 206.86 378.59C207.062 378.582 207.264 378.614 207.453 378.685C207.643 378.756 207.816 378.864 207.963 379.003C208.11 379.142 208.228 379.308 208.31 379.493C208.392 379.678 208.436 379.878 208.44 380.08Z" fill="#263238"/>
<path d="M209.59 375.78C209.39 375.98 208.22 375.05 206.52 374.98C204.82 374.91 203.52 375.73 203.36 375.51C203.2 375.29 203.48 375.05 204.04 374.67C204.8 374.188 205.691 373.954 206.59 374C207.475 374.026 208.328 374.338 209.02 374.89C209.53 375.31 209.7 375.69 209.59 375.78Z" fill="#263238"/>
<path d="M193.16 379.7C193.15 380.114 192.977 380.507 192.68 380.795C192.382 381.083 191.984 381.243 191.57 381.24C191.369 381.245 191.169 381.211 190.981 381.139C190.794 381.067 190.622 380.959 190.476 380.82C190.33 380.682 190.213 380.516 190.132 380.333C190.05 380.149 190.005 379.951 190 379.75C190.013 379.337 190.186 378.945 190.483 378.658C190.78 378.37 191.177 378.21 191.59 378.21C191.792 378.202 191.993 378.234 192.182 378.305C192.371 378.376 192.543 378.485 192.69 378.624C192.836 378.762 192.953 378.929 193.034 379.114C193.115 379.299 193.157 379.498 193.16 379.7Z" fill="#263238"/>
<path d="M193.41 375.37C193.2 375.56 192.04 374.63 190.33 374.57C188.62 374.51 187.33 375.31 187.17 375.09C187.01 374.87 187.29 374.63 187.86 374.26C188.616 373.776 189.503 373.539 190.4 373.58C191.287 373.613 192.14 373.924 192.84 374.47C193.34 374.9 193.51 375.28 193.41 375.37Z" fill="#263238"/>
<path d="M198.52 388.33C199.43 388.082 200.367 387.951 201.31 387.94C201.75 387.94 202.16 387.84 202.25 387.55C202.301 387.099 202.218 386.644 202.01 386.24C201.64 385.18 201.25 384.05 200.85 382.88C199.24 378.09 198.1 374.16 198.29 374.1C198.48 374.04 199.94 377.87 201.55 382.65L202.65 386.04C202.907 386.572 202.964 387.179 202.81 387.75C202.742 387.901 202.639 388.035 202.511 388.141C202.383 388.247 202.232 388.322 202.07 388.36C201.828 388.417 201.579 388.444 201.33 388.44C200.393 388.522 199.448 388.485 198.52 388.33Z" fill="#263238"/>
<path d="M198.92 408.55C193.097 408.41 187.427 406.659 182.54 403.49C182.54 403.49 186.37 412.21 198.78 411.49L198.92 408.55Z" fill="#EB996E"/>
<path d="M197.64 392.41C197.331 391.99 196.92 391.655 196.446 391.436C195.972 391.218 195.451 391.123 194.93 391.16C194.546 391.179 194.169 391.278 193.825 391.45C193.481 391.622 193.176 391.864 192.93 392.16C192.695 392.432 192.547 392.768 192.508 393.126C192.469 393.483 192.539 393.844 192.71 394.16C192.97 394.478 193.32 394.711 193.714 394.828C194.108 394.946 194.528 394.943 194.92 394.82C195.738 394.568 196.497 394.153 197.15 393.6C197.35 393.471 197.523 393.305 197.66 393.11C197.723 393.017 197.757 392.907 197.757 392.795C197.757 392.683 197.723 392.573 197.66 392.48" fill="#EB996E"/>
<path d="M193.46 389.32C193.74 389.32 193.67 391.16 195.2 392.54C196.73 393.92 198.71 393.78 198.72 394.04C198.73 394.3 198.26 394.38 197.43 394.37C196.345 394.346 195.303 393.939 194.49 393.22C193.71 392.532 193.23 391.567 193.15 390.53C193.11 389.75 193.33 389.3 193.46 389.32Z" fill="#263238"/>
<path d="M193.31 370.31C193.13 370.76 191.43 370.48 189.42 370.64C187.41 370.8 185.77 371.29 185.53 370.86C185.41 370.66 185.71 370.23 186.38 369.86C187.269 369.335 188.269 369.027 189.3 368.96C190.324 368.878 191.353 369.042 192.3 369.44C193 369.71 193.39 370.09 193.31 370.31Z" fill="#263238"/>
<path d="M209.39 368.31C209.07 368.68 207.92 368.24 206.5 368.16C205.08 368.08 203.89 368.32 203.63 367.9C203.51 367.7 203.72 367.32 204.25 366.98C204.969 366.564 205.795 366.373 206.624 366.43C207.452 366.487 208.245 366.79 208.9 367.3C209.38 367.72 209.53 368.12 209.39 368.31Z" fill="#263238"/>
<path d="M168.85 361.69C171.27 354.6 181.85 344.94 189.26 345.61L201.05 353C200.621 355.029 199.65 356.905 198.242 358.427C196.834 359.95 195.04 361.064 193.05 361.65C190.92 362.25 188.38 362.38 187.05 364.17C185.72 365.96 186.43 368.7 185.2 370.59C183.49 373.2 178.98 372.99 177.68 375.83C177.12 377.07 177.37 378.57 176.78 379.83C176 381.47 171.78 383.48 170.05 382.9C168.32 382.32 168.38 379.37 167.85 377.81C167.168 376.052 167.118 374.111 167.71 372.32C168.59 368.81 167.7 365.07 168.85 361.69Z" fill="#263238"/>
<path d="M175.19 384.43C175.19 383.51 174.24 381.3 173.34 381.12C170.93 380.65 166.55 380.67 166.27 386.83C165.89 395.25 174.42 393.9 174.44 393.66C174.46 393.42 175.07 387.61 175.19 384.43Z" fill="#FFBE9D"/>
<path d="M172 390.35C172 390.35 171.85 390.45 171.59 390.55C171.417 390.622 171.232 390.659 171.045 390.659C170.858 390.659 170.673 390.622 170.5 390.55C169.62 390.19 168.94 388.74 168.96 387.22C168.975 386.498 169.149 385.787 169.47 385.14C169.554 384.867 169.705 384.619 169.909 384.42C170.114 384.221 170.365 384.076 170.64 384C170.812 383.963 170.991 383.989 171.147 384.071C171.302 384.153 171.424 384.287 171.49 384.45C171.59 384.69 171.49 384.85 171.58 384.87C171.67 384.89 171.76 384.74 171.71 384.39C171.675 384.176 171.565 383.981 171.4 383.84C171.177 383.654 170.889 383.564 170.6 383.59C170.247 383.646 169.914 383.793 169.633 384.015C169.353 384.237 169.135 384.529 169 384.86C168.612 385.572 168.402 386.369 168.39 387.18C168.39 388.88 169.16 390.51 170.39 390.91C170.613 390.987 170.85 391.012 171.083 390.985C171.317 390.957 171.542 390.877 171.74 390.75C172 390.56 172.05 390.37 172 390.35Z" fill="#EB996E"/>
<path d="M167.05 359.5C167.05 356.87 163.79 355.15 161.22 354.5C158.592 354.057 155.892 354.59 153.63 356C152.28 356.74 150.92 357.79 150.63 359.3C150.34 360.81 151.78 362.62 153.22 362.08C152.55 362.348 151.942 362.752 151.437 363.267C150.931 363.782 150.537 364.397 150.282 365.072C150.026 365.747 149.913 366.468 149.951 367.189C149.988 367.91 150.175 368.615 150.5 369.26C150.887 369.87 151.396 370.392 151.996 370.795C152.596 371.197 153.272 371.47 153.983 371.597C154.694 371.724 155.424 371.702 156.125 371.532C156.827 371.362 157.486 371.048 158.06 370.61C157.327 373.051 155.782 375.168 153.68 376.61C155.86 376.922 158.085 376.653 160.128 375.83C162.171 375.008 163.961 373.661 165.317 371.925C166.674 370.189 167.548 368.127 167.852 365.945C168.156 363.764 167.88 361.54 167.05 359.5Z" fill="#263238"/>
<path d="M161.21 372.9C160.961 372.081 160.853 371.225 160.89 370.37C160.883 368.302 161.221 366.247 161.89 364.29C162.548 362.332 163.531 360.5 164.8 358.87C165.283 358.167 165.881 357.552 166.57 357.05C166.73 357.15 163.91 359.95 162.42 364.47C161.583 367.201 161.175 370.044 161.21 372.9Z" fill="#D11A30"/>
<path d="M198.6 350.45C199.38 353.88 204.6 358.28 206.88 360.95C211.24 366.04 212.1 367.73 212.06 379.11C214.12 375.18 215.7 371.33 215.54 366.89C215.442 362.406 213.706 358.112 210.66 354.82C209.128 353.205 207.24 351.969 205.146 351.21C203.053 350.452 200.812 350.191 198.6 350.45Z" fill="#263238"/>
<path d="M234.32 444.14C234.32 444.14 225.24 429 222.72 426C220.699 423.632 218.156 421.766 215.29 420.55C214.161 420.057 212.975 419.705 211.76 419.5L198.7 416.56C198.7 416.56 198.7 425.47 189.35 426.02C180 426.57 172.15 413.57 172.15 413.57C172.15 413.57 157.08 415.9 153.47 417.76C149.86 419.62 144.19 421.97 141.07 437.59L138.88 452.88L164.88 455.28L167.37 493.91L180.26 502.91C180.26 502.91 216.01 512.21 218.26 512.82C220.51 513.43 221.26 455.3 221.26 455.3C221.26 455.3 230.52 449.34 234.32 444.14Z" fill="#263238"/>
<path d="M217.2 437.64C217.411 437.993 217.582 438.369 217.71 438.76C218 439.48 218.38 440.56 218.8 441.9C219.888 445.404 220.661 448.998 221.11 452.64C221.553 456.289 221.67 459.97 221.46 463.64C221.38 465.05 221.27 466.18 221.15 466.96C221.122 467.366 221.052 467.768 220.94 468.16C220.892 467.755 220.892 467.345 220.94 466.94C220.94 466.16 221.04 465.02 221.08 463.63C221.178 459.989 221.011 456.346 220.58 452.73C220.134 449.106 219.422 445.52 218.45 442C218.08 440.65 217.75 439.57 217.51 438.82C217.367 438.438 217.263 438.043 217.2 437.64Z" fill="#455A64"/>
<path d="M216.09 500.93L167.14 490.27L164.88 455.27L143.11 453.27C143.11 453.27 143.92 477.19 144.75 484.27C145.96 494.5 152 508.45 155.54 511.27C159.08 514.09 218.29 512.8 218.29 512.8L216.09 500.93Z" fill="#FFBE9D"/>
<path d="M243.88 507.27C243.717 507.608 243.457 507.89 243.132 508.079C242.808 508.268 242.435 508.355 242.06 508.33C241.896 508.319 241.735 508.285 241.58 508.23C240.5 507.89 240.58 505.68 240.58 505.68L235.4 504.83C235.4 504.83 228.65 509.18 226.25 512.07C223.85 514.96 217.73 512.62 217.73 512.62L215.6 501.56L225.15 492.92C225.15 492.92 224.57 493.44 225.22 491.82C225.87 490.2 228.88 490.82 228.88 490.82C229.35 490.02 231.31 489.73 231.31 489.73L239.69 490.73C240.541 490.83 241.359 491.119 242.084 491.576C242.809 492.033 243.422 492.646 243.88 493.37L247.42 498.97C247.42 498.97 249.3 502.97 248.99 503.97C248.856 504.372 248.576 504.708 248.205 504.912C247.835 505.116 247.401 505.172 246.99 505.07C246.99 505.07 246.58 507.72 245.88 507.81C245.165 507.78 244.463 507.613 243.81 507.32L243.88 507.27Z" fill="#FFBE9D"/>
<path d="M226.05 499.33C226.05 499.41 227.18 499.33 228.97 499.39C231.295 499.497 233.594 499.928 235.8 500.67C237.015 501.075 238.195 501.577 239.33 502.17C240.33 502.74 241.39 503.17 241.72 503.95C241.794 504.11 241.825 504.286 241.809 504.462C241.794 504.638 241.732 504.806 241.63 504.95C241.474 505.186 241.251 505.371 240.99 505.48C240.754 505.556 240.508 505.594 240.26 505.59C240.26 505.59 240.52 505.82 241.06 505.68C241.383 505.585 241.667 505.389 241.87 505.12C242.013 504.937 242.107 504.721 242.142 504.491C242.177 504.262 242.152 504.027 242.07 503.81C241.86 503.327 241.512 502.917 241.07 502.63C240.61 502.33 240.13 502.03 239.6 501.74C238.451 501.11 237.25 500.581 236.01 500.16C233.752 499.393 231.384 499.002 229 499C228.005 498.956 227.01 499.068 226.05 499.33Z" fill="#EB996E"/>
<path d="M225.47 504.67C225.47 504.82 228.89 504.67 233.07 504.93C237.25 505.19 240.63 505.69 240.66 505.53C239.96 505.257 239.227 505.078 238.48 505C236.699 504.699 234.903 504.495 233.1 504.39C231.302 504.289 229.499 504.289 227.7 504.39C226.947 504.379 226.197 504.473 225.47 504.67Z" fill="#EB996E"/>
<path d="M243.83 507.05C243.906 506.76 243.943 506.46 243.94 506.16C243.991 505.344 243.991 504.526 243.94 503.71C243.912 503.138 243.835 502.569 243.71 502.01C243.557 501.356 243.278 500.738 242.89 500.19C242.065 498.921 240.998 497.827 239.75 496.97C238.521 496.113 237.173 495.439 235.75 494.97C234.573 494.627 233.356 494.442 232.13 494.42C231.13 494.42 230.26 494.42 229.69 494.42C229.387 494.406 229.083 494.439 228.79 494.52C229.891 494.67 230.999 494.76 232.11 494.79C233.298 494.873 234.472 495.091 235.61 495.44C236.974 495.932 238.265 496.605 239.45 497.44C240.631 498.262 241.648 499.296 242.45 500.49C243.106 501.463 243.483 502.598 243.54 503.77C243.77 505.77 243.72 507.06 243.83 507.05Z" fill="#EB996E"/>
<path d="M231.73 491.86C231.73 491.94 232.99 491.97 234.99 492.2C236.99 492.43 239.99 492.64 241.76 495.3C243.465 497.283 244.886 499.494 245.98 501.87C246.342 502.887 246.61 503.934 246.78 505C246.834 504.706 246.834 504.404 246.78 504.11C246.729 503.301 246.564 502.503 246.29 501.74C245.273 499.271 243.865 496.982 242.12 494.96C241.655 494.344 241.111 493.792 240.5 493.32C239.898 492.886 239.22 492.57 238.5 492.39C237.338 492.085 236.149 491.897 234.95 491.83C233.88 491.701 232.798 491.711 231.73 491.86Z" fill="#EB996E"/>
<path d="M228.1 510.28C228.28 510.172 228.448 510.045 228.6 509.9L230 508.78C231.761 507.411 233.601 506.145 235.51 504.99H235.39L240.57 505.87L240.39 505.65C240.374 506.076 240.407 506.502 240.49 506.92C240.553 507.388 240.759 507.824 241.08 508.17C241.271 508.339 241.507 508.447 241.76 508.48C242.001 508.53 242.249 508.53 242.49 508.48C242.991 508.406 243.449 508.154 243.78 507.77C243.868 507.675 243.945 507.571 244.01 507.46V507.38L243.71 507.49L243.88 507.56C244.1 507.65 244.32 507.73 244.55 507.8C244.782 507.873 245.02 507.93 245.26 507.97C245.385 507.997 245.512 508.014 245.64 508.02C245.806 508.034 245.973 507.999 246.12 507.92C246.354 507.75 246.532 507.513 246.63 507.24C246.734 507.01 246.821 506.773 246.89 506.53C247.029 506.047 247.14 505.556 247.22 505.06L246.92 505.27C247.271 505.343 247.636 505.321 247.975 505.205C248.315 505.088 248.617 504.883 248.85 504.61C249.092 504.315 249.22 503.942 249.21 503.56C249.183 503.222 249.122 502.887 249.03 502.56C248.637 501.286 248.159 500.04 247.6 498.83L245.71 495.83L244.51 493.93C244.142 493.274 243.702 492.66 243.2 492.1C242.665 491.56 242.025 491.134 241.32 490.85C240.632 490.596 239.911 490.445 239.18 490.4L231.29 489.52H231.23C230.756 489.593 230.29 489.713 229.84 489.88C229.364 490.031 228.945 490.324 228.64 490.72L228.93 490.63C228.502 490.438 228.035 490.351 227.567 490.377C227.099 490.404 226.644 490.542 226.24 490.78C225.583 491.304 225.141 492.051 225 492.88L225.06 492.77L218.48 498.69L216.71 500.33C216.491 500.51 216.29 500.711 216.11 500.93C216.348 500.777 216.572 500.603 216.78 500.41L218.63 498.86L225.32 493.07V493C225.465 492.262 225.883 491.605 226.49 491.16C226.833 490.964 227.218 490.852 227.613 490.835C228.008 490.817 228.401 490.895 228.76 491.06L228.94 491.14L229.05 490.97C229.312 490.664 229.661 490.444 230.05 490.34C230.468 490.189 230.9 490.079 231.34 490.01H231.28L239.17 490.94C239.854 490.975 240.529 491.117 241.17 491.36C241.808 491.616 242.387 492 242.87 492.49C243.347 493.025 243.763 493.612 244.11 494.24C244.51 494.86 244.91 495.5 245.31 496.13L247.2 499.13C247.756 500.312 248.227 501.531 248.61 502.78C248.697 503.067 248.754 503.362 248.78 503.66C248.792 503.92 248.702 504.175 248.53 504.37C248.36 504.57 248.14 504.72 247.891 504.805C247.643 504.889 247.376 504.905 247.12 504.85H246.85V505.1C246.773 505.572 246.669 506.039 246.54 506.5C246.46 506.914 246.274 507.3 246 507.62C245.931 507.639 245.859 507.639 245.79 507.62C245.683 507.629 245.576 507.629 245.47 507.62C245.25 507.584 245.033 507.534 244.82 507.47L244.18 507.25L244.03 507.18L243.72 507.29V507.36C243.669 507.444 243.612 507.524 243.55 507.6C243.294 507.902 242.94 508.104 242.55 508.17C242.361 508.205 242.168 508.205 241.98 508.17C241.803 508.153 241.636 508.084 241.5 507.97C241.063 507.335 240.865 506.567 240.94 505.8V505.61H240.77L235.57 504.8H235.51H235.45C233.551 505.995 231.734 507.315 230.01 508.75C229.41 509.257 228.96 509.657 228.66 509.95C228.465 510.045 228.278 510.156 228.1 510.28Z" fill="#EB996E"/>
<path d="M307.39 475.1L242.92 475.62C240.82 475.62 238.83 476.62 238.51 478.7L231.51 525.7H198.25C197.761 525.735 197.303 525.954 196.969 526.313C196.635 526.672 196.449 527.145 196.449 527.635C196.449 528.125 196.635 528.598 196.969 528.957C197.303 529.316 197.761 529.535 198.25 529.57H304.33L311.58 480C311.675 479.395 311.638 478.776 311.472 478.186C311.305 477.597 311.012 477.05 310.614 476.584C310.216 476.119 309.721 475.745 309.165 475.489C308.608 475.232 308.003 475.1 307.39 475.1Z" fill="#263238"/>
<path d="M307.39 475.1C307.726 475.086 308.063 475.12 308.39 475.2C309.248 475.403 310.022 475.867 310.605 476.528C311.189 477.189 311.554 478.014 311.65 478.89C311.674 479.78 311.593 480.669 311.41 481.54C311.14 483.44 310.83 485.63 310.48 488.08C309.06 497.94 307.02 512.14 304.48 529.59V529.76H304.31L201.4 529.83H198.65C198.143 529.872 197.635 529.775 197.18 529.55C196.72 529.288 196.367 528.875 196.18 528.38C196.004 527.889 196.009 527.351 196.192 526.862C196.375 526.374 196.725 525.965 197.18 525.71C197.632 525.485 198.137 525.388 198.64 525.43H231.46L231.21 525.65C233.74 508.81 236.11 493.11 238.21 479.03C238.28 478.087 238.709 477.206 239.41 476.57C240.107 475.977 240.962 475.602 241.87 475.49C242.734 475.403 243.602 475.369 244.47 475.39H247L256.71 475.32L273.96 475.21L298.52 475.09H306.79H307.36C307.36 475.09 307.17 475.09 306.79 475.09H305.09L298.52 475.19L273.96 475.46L256.71 475.63L247 475.72H244.47C243.625 475.699 242.781 475.729 241.94 475.81C241.11 475.921 240.329 476.268 239.69 476.81C239.08 477.383 238.721 478.174 238.69 479.01C236.59 493.1 234.24 508.81 231.69 525.64V525.85H198.69C198.278 525.806 197.862 525.879 197.49 526.06C197.227 526.204 197.008 526.416 196.855 526.674C196.702 526.931 196.621 527.225 196.621 527.525C196.621 527.825 196.702 528.119 196.855 528.377C197.008 528.634 197.227 528.846 197.49 528.99C197.862 529.181 198.284 529.255 198.7 529.2H201.47L304.38 529.27L304.18 529.44C306.77 511.99 308.87 497.8 310.33 487.95C310.7 485.5 311.03 483.31 311.33 481.41C311.515 480.553 311.606 479.677 311.6 478.8C311.53 478.079 311.272 477.389 310.85 476.8C310.274 475.988 309.432 475.404 308.47 475.15C307.74 475.1 307.39 475.13 307.39 475.1Z" fill="#263238"/>
<path d="M272.42 505.78C274.651 505.78 276.46 503.971 276.46 501.74C276.46 499.509 274.651 497.7 272.42 497.7C270.189 497.7 268.38 499.509 268.38 501.74C268.38 503.971 270.189 505.78 272.42 505.78Z" fill="white"/>
<path d="M234.08 529.13C234.17 529.13 236.22 517.18 238.66 502.41C241.1 487.64 243.01 475.64 242.92 475.62C242.83 475.6 240.77 487.57 238.33 502.35C235.89 517.13 234 529.12 234.08 529.13Z" fill="#263238"/>
</g>
<g opacity="0.51">
<path opacity="0.51" d="M0.28981 286.22C0.836572 286.22 1.2798 285.777 1.2798 285.23C1.2798 284.683 0.836572 284.24 0.28981 284.24C-0.256952 284.24 -0.700195 284.683 -0.700195 285.23C-0.700195 285.777 -0.256952 286.22 0.28981 286.22Z" fill="black"/>
<path opacity="0.51" d="M0.28981 309.07C0.836572 309.07 1.2798 308.627 1.2798 308.08C1.2798 307.533 0.836572 307.09 0.28981 307.09C-0.256952 307.09 -0.700195 307.533 -0.700195 308.08C-0.700195 308.627 -0.256952 309.07 0.28981 309.07Z" fill="black"/>
<path opacity="0.51" d="M0.28981 331.91C0.836572 331.91 1.2798 331.466 1.2798 330.92C1.2798 330.373 0.836572 329.93 0.28981 329.93C-0.256952 329.93 -0.700195 330.373 -0.700195 330.92C-0.700195 331.466 -0.256952 331.91 0.28981 331.91Z" fill="black"/>
</g>
<g opacity="0.51">
<path opacity="0.51" d="M215.86 45C215.86 45.1978 215.802 45.3911 215.692 45.5556C215.582 45.72 215.426 45.8482 215.243 45.9239C215.06 45.9996 214.859 46.0194 214.665 45.9808C214.471 45.9422 214.293 45.847 214.153 45.7071C214.013 45.5673 213.918 45.3891 213.88 45.1951C213.841 45.0011 213.861 44.8001 213.936 44.6173C214.012 44.4346 214.14 44.2784 214.305 44.1685C214.469 44.0587 214.663 44 214.86 44C215.126 44 215.38 44.1054 215.567 44.2929C215.755 44.4804 215.86 44.7348 215.86 45Z" fill="black"/>
<path opacity="0.51" d="M230.8 45C230.8 45.2652 230.695 45.5196 230.507 45.7071C230.32 45.8946 230.066 46 229.8 46C229.535 46 229.281 45.8946 229.093 45.7071C228.906 45.5196 228.8 45.2652 228.8 45C228.8 44.7348 228.906 44.4804 229.093 44.2929C229.281 44.1054 229.535 44 229.8 44C230.066 44 230.32 44.1054 230.507 44.2929C230.695 44.4804 230.8 44.7348 230.8 45Z" fill="black"/>
<path opacity="0.51" d="M245.8 45C245.8 45.1978 245.742 45.3911 245.632 45.5556C245.522 45.72 245.366 45.8482 245.183 45.9239C245 45.9996 244.799 46.0194 244.605 45.9808C244.411 45.9422 244.233 45.847 244.093 45.7071C243.953 45.5673 243.858 45.3891 243.82 45.1951C243.781 45.0011 243.801 44.8001 243.876 44.6173C243.952 44.4346 244.08 44.2784 244.245 44.1685C244.409 44.0587 244.603 44 244.8 44C245.066 44 245.32 44.1054 245.507 44.2929C245.695 44.4804 245.8 44.7348 245.8 45Z" fill="black"/>
<path opacity="0.51" d="M260.73 45C260.73 45.1978 260.672 45.3911 260.562 45.5556C260.452 45.72 260.296 45.8482 260.113 45.9239C259.93 45.9996 259.729 46.0194 259.535 45.9808C259.341 45.9422 259.163 45.847 259.023 45.7071C258.884 45.5673 258.788 45.3891 258.75 45.1951C258.711 45.0011 258.731 44.8001 258.807 44.6173C258.882 44.4346 259.01 44.2784 259.175 44.1685C259.339 44.0587 259.533 44 259.73 44C259.996 44 260.25 44.1054 260.438 44.2929C260.625 44.4804 260.73 44.7348 260.73 45Z" fill="black"/>
<path opacity="0.51" d="M222.35 57.3799C222.897 57.3799 223.34 56.9367 223.34 56.3899C223.34 55.8431 222.897 55.3999 222.35 55.3999C221.804 55.3999 221.36 55.8431 221.36 56.3899C221.36 56.9367 221.804 57.3799 222.35 57.3799Z" fill="black"/>
<path opacity="0.51" d="M238.3 56.3901C238.3 56.5879 238.242 56.7813 238.132 56.9457C238.022 57.1102 237.866 57.2383 237.683 57.314C237.5 57.3897 237.299 57.4095 237.105 57.3709C236.911 57.3323 236.733 57.2371 236.593 57.0972C236.453 56.9574 236.358 56.7792 236.32 56.5852C236.281 56.3913 236.301 56.1902 236.376 56.0075C236.452 55.8247 236.58 55.6686 236.745 55.5587C236.909 55.4488 237.103 55.3901 237.3 55.3901C237.566 55.3901 237.82 55.4955 238.007 55.683C238.195 55.8706 238.3 56.1249 238.3 56.3901Z" fill="black"/>
<path opacity="0.51" d="M252.26 57.3799C252.807 57.3799 253.251 56.9367 253.251 56.3899C253.251 55.8431 252.807 55.3999 252.26 55.3999C251.714 55.3999 251.271 55.8431 251.271 56.3899C251.271 56.9367 251.714 57.3799 252.26 57.3799Z" fill="black"/>
<path opacity="0.51" d="M267.22 57.3799C267.767 57.3799 268.21 56.9367 268.21 56.3899C268.21 55.8431 267.767 55.3999 267.22 55.3999C266.674 55.3999 266.23 55.8431 266.23 56.3899C266.23 56.9367 266.674 57.3799 267.22 57.3799Z" fill="black"/>
<path opacity="0.51" d="M215.86 67.8398C215.86 68.0376 215.802 68.231 215.692 68.3954C215.582 68.5599 215.426 68.688 215.243 68.7637C215.06 68.8394 214.859 68.8592 214.665 68.8206C214.471 68.782 214.293 68.6868 214.153 68.547C214.013 68.4071 213.918 68.2289 213.88 68.0349C213.841 67.841 213.861 67.6399 213.936 67.4572C214.012 67.2744 214.14 67.1183 214.305 67.0084C214.469 66.8985 214.663 66.8398 214.86 66.8398C215.126 66.8398 215.38 66.9452 215.567 67.1328C215.755 67.3203 215.86 67.5746 215.86 67.8398Z" fill="black"/>
<path opacity="0.51" d="M230.8 67.8398C230.8 68.0376 230.742 68.231 230.632 68.3954C230.522 68.5599 230.366 68.688 230.183 68.7637C230 68.8394 229.799 68.8592 229.605 68.8206C229.411 68.782 229.233 68.6868 229.093 68.547C228.953 68.4071 228.858 68.2289 228.82 68.0349C228.781 67.841 228.801 67.6399 228.876 67.4572C228.952 67.2744 229.08 67.1183 229.245 67.0084C229.409 66.8985 229.603 66.8398 229.8 66.8398C230.066 66.8398 230.32 66.9452 230.507 67.1328C230.695 67.3203 230.8 67.5746 230.8 67.8398Z" fill="black"/>
<path opacity="0.51" d="M245.8 67.8398C245.8 68.0376 245.742 68.231 245.632 68.3954C245.522 68.5599 245.366 68.688 245.183 68.7637C245 68.8394 244.799 68.8592 244.605 68.8206C244.411 68.782 244.233 68.6868 244.093 68.547C243.953 68.4071 243.858 68.2289 243.82 68.0349C243.781 67.841 243.801 67.6399 243.876 67.4572C243.952 67.2744 244.08 67.1183 244.245 67.0084C244.409 66.8985 244.603 66.8398 244.8 66.8398C245.066 66.8398 245.32 66.9452 245.507 67.1328C245.695 67.3203 245.8 67.5746 245.8 67.8398Z" fill="black"/>
<path opacity="0.51" d="M260.73 67.8398C260.73 68.0376 260.672 68.231 260.562 68.3954C260.452 68.5599 260.296 68.688 260.113 68.7637C259.93 68.8394 259.729 68.8592 259.535 68.8206C259.341 68.782 259.163 68.6868 259.023 68.547C258.884 68.4071 258.788 68.2289 258.75 68.0349C258.711 67.841 258.731 67.6399 258.807 67.4572C258.882 67.2744 259.01 67.1183 259.175 67.0084C259.339 66.8985 259.533 66.8398 259.73 66.8398C259.996 66.8398 260.25 66.9452 260.438 67.1328C260.625 67.3203 260.73 67.5746 260.73 67.8398Z" fill="black"/>
<path opacity="0.51" d="M222.35 80.2202C222.897 80.2202 223.34 79.777 223.34 79.2302C223.34 78.6835 222.897 78.2402 222.35 78.2402C221.804 78.2402 221.36 78.6835 221.36 79.2302C221.36 79.777 221.804 80.2202 222.35 80.2202Z" fill="black"/>
<path opacity="0.51" d="M238.3 79.23C238.3 79.4952 238.195 79.7496 238.007 79.9371C237.82 80.1246 237.566 80.23 237.3 80.23C237.035 80.23 236.781 80.1246 236.593 79.9371C236.406 79.7496 236.3 79.4952 236.3 79.23C236.3 78.9648 236.406 78.7104 236.593 78.5229C236.781 78.3354 237.035 78.23 237.3 78.23C237.566 78.23 237.82 78.3354 238.007 78.5229C238.195 78.7104 238.3 78.9648 238.3 79.23Z" fill="black"/>
<path opacity="0.51" d="M252.26 80.2202C252.807 80.2202 253.251 79.777 253.251 79.2302C253.251 78.6835 252.807 78.2402 252.26 78.2402C251.714 78.2402 251.271 78.6835 251.271 79.2302C251.271 79.777 251.714 80.2202 252.26 80.2202Z" fill="black"/>
<path opacity="0.51" d="M267.22 80.2202C267.767 80.2202 268.21 79.777 268.21 79.2302C268.21 78.6835 267.767 78.2402 267.22 78.2402C266.674 78.2402 266.23 78.6835 266.23 79.2302C266.23 79.777 266.674 80.2202 267.22 80.2202Z" fill="black"/>
<path opacity="0.51" d="M215.86 90.6802C215.86 90.878 215.802 91.0713 215.692 91.2357C215.582 91.4002 215.426 91.5284 215.243 91.604C215.06 91.6797 214.859 91.6995 214.665 91.6609C214.471 91.6224 214.293 91.5271 214.153 91.3873C214.013 91.2474 213.918 91.0692 213.88 90.8753C213.841 90.6813 213.861 90.4802 213.936 90.2975C214.012 90.1148 214.14 89.9586 214.305 89.8487C214.469 89.7388 214.663 89.6802 214.86 89.6802C215.126 89.6802 215.38 89.7855 215.567 89.9731C215.755 90.1606 215.86 90.415 215.86 90.6802Z" fill="black"/>
<path opacity="0.51" d="M230.8 90.6802C230.8 90.878 230.742 91.0713 230.632 91.2357C230.522 91.4002 230.366 91.5284 230.183 91.604C230 91.6797 229.799 91.6995 229.605 91.6609C229.411 91.6224 229.233 91.5271 229.093 91.3873C228.953 91.2474 228.858 91.0692 228.82 90.8753C228.781 90.6813 228.801 90.4802 228.876 90.2975C228.952 90.1148 229.08 89.9586 229.245 89.8487C229.409 89.7388 229.603 89.6802 229.8 89.6802C230.066 89.6802 230.32 89.7855 230.507 89.9731C230.695 90.1606 230.8 90.415 230.8 90.6802Z" fill="black"/>
<path opacity="0.51" d="M245.8 90.6802C245.8 90.9454 245.695 91.1997 245.507 91.3873C245.32 91.5748 245.066 91.6802 244.8 91.6802C244.535 91.6802 244.281 91.5748 244.093 91.3873C243.906 91.1997 243.8 90.9454 243.8 90.6802C243.8 90.415 243.906 90.1606 244.093 89.9731C244.281 89.7855 244.535 89.6802 244.8 89.6802C245.066 89.6802 245.32 89.7855 245.507 89.9731C245.695 90.1606 245.8 90.415 245.8 90.6802Z" fill="black"/>
<path opacity="0.51" d="M260.73 90.6802C260.73 90.878 260.672 91.0713 260.562 91.2357C260.452 91.4002 260.296 91.5284 260.113 91.604C259.93 91.6797 259.729 91.6995 259.535 91.6609C259.341 91.6224 259.163 91.5271 259.023 91.3873C258.884 91.2474 258.788 91.0692 258.75 90.8753C258.711 90.6813 258.731 90.4802 258.807 90.2975C258.882 90.1148 259.01 89.9586 259.175 89.8487C259.339 89.7388 259.533 89.6802 259.73 89.6802C259.996 89.6802 260.25 89.7855 260.438 89.9731C260.625 90.1606 260.73 90.415 260.73 90.6802Z" fill="black"/>
<path opacity="0.51" d="M222.35 103.07C222.897 103.07 223.34 102.627 223.34 102.08C223.34 101.533 222.897 101.09 222.35 101.09C221.804 101.09 221.36 101.533 221.36 102.08C221.36 102.627 221.804 103.07 222.35 103.07Z" fill="black"/>
<path opacity="0.51" d="M238.3 102.08C238.3 102.278 238.242 102.471 238.132 102.636C238.022 102.8 237.866 102.928 237.683 103.004C237.5 103.08 237.299 103.099 237.105 103.061C236.911 103.022 236.733 102.927 236.593 102.787C236.453 102.647 236.358 102.469 236.32 102.275C236.281 102.081 236.301 101.88 236.376 101.697C236.452 101.515 236.58 101.358 236.745 101.249C236.909 101.139 237.103 101.08 237.3 101.08C237.566 101.08 237.82 101.185 238.007 101.373C238.195 101.56 238.3 101.815 238.3 102.08Z" fill="black"/>
<path opacity="0.51" d="M252.26 103.07C252.807 103.07 253.251 102.627 253.251 102.08C253.251 101.533 252.807 101.09 252.26 101.09C251.714 101.09 251.271 101.533 251.271 102.08C251.271 102.627 251.714 103.07 252.26 103.07Z" fill="black"/>
<path opacity="0.51" d="M267.22 103.07C267.767 103.07 268.21 102.627 268.21 102.08C268.21 101.533 267.767 101.09 267.22 101.09C266.674 101.09 266.23 101.533 266.23 102.08C266.23 102.627 266.674 103.07 267.22 103.07Z" fill="black"/>
</g>
<path d="M109.8 150.02H56.8799V97.0996H109.8V150.02ZM65.0199 141.88H101.66V105.24H65.0199V141.88Z" stroke="black" stroke-width="0.25" stroke-miterlimit="10"/>
<path d="M154.33 176.78C161.84 173.54 165.01 180.87 172.52 177.63C180.03 174.39 176.87 167.06 184.38 163.82C191.89 160.58 195.05 167.9 202.56 164.66C210.07 161.42 206.91 154.09 214.43 150.84C221.95 147.59 225.1 154.93 232.61 151.69" stroke="black" stroke-width="0.17" stroke-miterlimit="10"/>
<path d="M59.1797 209.77L63.9497 212.52V207.01L59.1797 209.77Z" fill="#F2C94C"/>
<path d="M77.6098 209.77L72.8398 207.01V212.52L77.6098 209.77Z" fill="#F2C94C"/>
<path d="M68.3997 218.98L71.1497 214.21H65.6396L68.3997 218.98Z" fill="#F2C94C"/>
<path d="M68.3997 200.55L65.6396 205.32H71.1497L68.3997 200.55Z" fill="#F2C94C"/>
<path d="M158.46 67.7197L163.23 70.4797V64.9697L158.46 67.7197Z" fill="black"/>
<path d="M176.89 67.7197L172.12 64.9697V70.4797L176.89 67.7197Z" fill="black"/>
<path d="M167.67 76.9399L170.43 72.1699H164.92L167.67 76.9399Z" fill="black"/>
<path d="M167.67 58.5098L164.92 63.2798H170.43L167.67 58.5098Z" fill="black"/>
</g>
<defs>
<clipPath id="clip0_1_19">
<rect width="698" height="1114" fill="white"/>
</clipPath>
<clipPath id="clip1_1_19">
<rect width="428.14" height="443.06" fill="white" transform="translate(131 259)"/>
</clipPath>
</defs>
</svg>
